<?xml version="1.0" encoding="UTF-8"?>
<svg width="45px" height="46px" viewBox="0 0 45 46" version="1.1" xmlns="http://www.w3.org/2000/svg" xmlns:xlink="http://www.w3.org/1999/xlink">
    <title>Shape</title>
    <g id="Landing" stroke="none" stroke-width="1" fill="none" fill-rule="evenodd">
        <g id="Desktop-HD-Copy-2" transform="translate(-421.000000, -327.000000)" fill="#FFFFFF" fill-rule="nonzero">
            <path d="M463.301998,342.792114 L458.844164,342.792114 L457.848265,338.239432 C457.089485,334.730074 453.912093,332.16919 450.35531,332.16919 L449.97592,332.16919 L449.359411,328.51756 C449.21714,327.663933 448.45836,327 447.557308,327 L438.546793,327 C437.645741,327 436.886961,327.616509 436.74469,328.51756 L436.128181,332.16919 L435.748791,332.16919 C432.144585,332.16919 429.014616,334.730074 428.255836,338.239432 L427.259937,342.792114 L422.802103,342.792114 C421.806204,342.792114 421,343.598318 421,344.594217 L421,346.917981 C421,347.91388 421.806204,348.720084 422.802103,348.720084 L424.841325,348.720084 L423.655731,350.000526 C422.944374,350.759306 422.470137,351.755205 422.375289,352.798528 L421.569085,360.149211 C421.426814,361.429653 421.806204,362.662671 422.564984,363.611146 L422.564984,370.155626 C422.564984,371.246372 423.466036,372.1 424.509359,372.1 L429.156887,372.1 C430.247634,372.1 431.101262,371.246372 431.101262,370.155626 L431.101262,365.555521 L455.050263,365.555521 L455.050263,370.155626 C455.050263,371.246372 455.951314,372.1 456.994637,372.1 L461.642166,372.1 C462.732913,372.1 463.58654,371.246372 463.58654,370.155626 L463.58654,363.563722 C464.297897,362.615247 464.724711,361.429653 464.58244,360.101788 L463.776236,352.751104 C463.681388,351.707781 463.20715,350.711882 462.495794,349.953102 L461.3102,348.67266 L463.349422,348.67266 C464.345321,348.67266 465.151525,347.866456 465.151525,346.870557 L465.151525,344.546793 C465.151525,343.598318 464.297897,342.792114 463.301998,342.792114 Z M432.144585,339.09306 C432.523975,337.385804 434.041535,336.20021 435.748791,336.20021 L450.35531,336.20021 C452.062566,336.20021 453.580126,337.433228 453.959516,339.09306 L455.382229,345.732387 L430.721872,345.732387 L432.144585,339.09306 Z M431.101262,358.299685 C429.346583,358.299685 427.92387,356.876972 427.92387,355.122292 C427.92387,353.367613 429.346583,351.9449 431.101262,351.9449 C432.855941,351.9449 434.278654,353.367613 434.278654,355.122292 C434.278654,356.876972 432.855941,358.299685 431.101262,358.299685 Z M447.320189,361.287382 L438.783912,361.287382 C438.26225,361.287382 437.88286,360.860568 437.88286,360.38633 C437.88286,359.912093 438.26225,359.485279 438.783912,359.485279 L447.320189,359.485279 C447.841851,359.485279 448.221241,359.912093 448.221241,360.38633 C448.221241,360.860568 447.841851,361.287382 447.320189,361.287382 Z M447.320189,357.208938 L438.783912,357.208938 C438.26225,357.208938 437.88286,356.782124 437.88286,356.307886 C437.88286,355.833649 438.309674,355.406835 438.783912,355.406835 L447.320189,355.406835 C447.841851,355.406835 448.221241,355.833649 448.221241,356.307886 C448.221241,356.782124 447.841851,357.208938 447.320189,357.208938 Z M455.002839,358.299685 C453.24816,358.299685 451.825447,356.876972 451.825447,355.122292 C451.825447,353.367613 453.24816,351.9449 455.002839,351.9449 C456.757518,351.9449 458.180231,353.367613 458.180231,355.122292 C458.180231,356.876972 456.757518,358.299685 455.002839,358.299685 Z" id="Shape"></path>
        </g>
    </g>
</svg>