<?xml version="1.0" encoding="UTF-8"?>
<svg width="166px" height="166px" viewBox="0 0 166 166" version="1.1" xmlns="http://www.w3.org/2000/svg" xmlns:xlink="http://www.w3.org/1999/xlink">
    <!-- Generator: Sketch 54.1 (76490) - https://sketchapp.com -->
    <title>Group 7</title>
    <desc>Created with Sketch.</desc>
    <g id="KYC" stroke="none" stroke-width="1" fill="none" fill-rule="evenodd">
        <g id="Desktop-HD-Copy-5" transform="translate(-856.000000, -1865.000000)">
            <g id="Group-3-Copy-2" transform="translate(364.000000, 1718.000000)">
                <g id="Group-7" transform="translate(492.000000, 147.000000)">
                    <rect id="Rectangle-6" stroke="#D1E7FF" fill="#EBF3FD" x="0.5" y="0.5" width="164.877551" height="164.877551" rx="20"></rect>
                    <path d="M75.8908401,59 L73.0052207,64.7623007 L62.0398671,64.7623007 C59.8017807,64.7623007 58,66.5612852 58,68.7959112 L58,94.150063 C58,96.3846832 59.8017807,98.1836735 62.0398671,98.1836735 L103.592786,98.1836735 C105.830872,98.1836735 107.632653,96.3846832 107.632653,94.150063 L107.632653,68.7959112 C107.632653,66.5612852 105.830872,64.7623007 103.592786,64.7623007 L92.6274324,64.7623007 L89.741813,59 L75.8908401,59 Z M82.8163265,68.2196811 C90.1131345,68.2196811 96.0901756,74.1875346 96.0901756,81.4729439 C96.0901756,88.7584511 90.1131345,94.7262931 82.8163265,94.7262931 C75.5195763,94.7262931 69.5424775,88.7584511 69.5424775,81.4729439 C69.5424775,74.1875 75.519634,68.2196811 82.8163265,68.2196811 Z M82.8163265,73.9819818 C78.6386422,73.9819818 75.3137162,77.3017296 75.3137162,81.4729439 C75.3137162,85.6442157 78.6387,88.9639924 82.8163265,88.9639924 C86.9941262,88.9639924 90.3189369,85.6442733 90.3189369,81.4729439 C90.3189369,77.3017296 86.9941262,73.9819818 82.8163265,73.9819818 Z" id="Shape" fill="#9B9B9B" fill-rule="nonzero"></path>
                </g>
            </g>
        </g>
    </g>
</svg>