<?xml version="1.0" encoding="UTF-8"?>
<svg width="209px" height="209px" viewBox="0 0 209 209" version="1.1" xmlns="http://www.w3.org/2000/svg" xmlns:xlink="http://www.w3.org/1999/xlink">
    <title>Group</title>
    <defs>
        <linearGradient x1="0%" y1="0%" x2="101.999998%" y2="100.999999%" id="linearGradient-1">
            <stop stop-color="#002092" offset="0%"></stop>
            <stop stop-color="#1AB9C8" offset="100%"></stop>
        </linearGradient>
    </defs>
    <g id="Page-1" stroke="none" stroke-width="1" fill="none" fill-rule="evenodd">
        <g id="Desktop-HD-Copy" transform="translate(-768.000000, -407.000000)">
            <g id="Group" transform="translate(768.000000, 407.000000)">
                <rect id="Rectangle-Copy" fill="url(#linearGradient-1)" x="0" y="0" width="209" height="209" rx="60"></rect>
                <g id="iconmonstr-car-3" transform="translate(46.000000, 61.000000)" fill="#FFFFFF" fill-rule="nonzero">
                    <path d="M114.888889,19.5555556 C116.238222,19.5555556 117.333333,20.6506667 117.333333,22 L117.333333,24.4982222 C117.333333,28.3751111 112.806222,29.3333333 109.432889,29.3333333 L104.123556,19.5555556 L114.888889,19.5555556 Z M107.844,36.696 C110.968,42.4942222 112.468889,47.7057778 112.468889,54.6186667 C112.468889,61.3164444 110.528,67.0022222 107.555556,74.0813333 L107.555556,83.1111111 C107.555556,85.8097778 105.365333,88 102.666667,88 L95.3333333,88 C92.6346667,88 90.4444444,85.8097778 90.4444444,83.1111111 L90.4444444,78.2222222 L26.8888889,78.2222222 L26.8888889,83.1111111 C26.8888889,85.8097778 24.6986667,88 22,88 L14.6666667,88 C11.968,88 9.77777778,85.8097778 9.77777778,83.1111111 L9.77777778,74.0813333 C6.80533333,67.0022222 4.86444444,61.3164444 4.86444444,54.6186667 C4.86444444,47.7057778 6.36533333,42.4942222 9.48933333,36.696 C13.5422222,29.1817778 18.5386667,19.8146667 23.8137778,11.0195556 C27.8617778,4.26311111 29.9835556,2.67422222 34.9506667,1.78444444 C42.4404444,0.44 49.2164444,0 58.6666667,0 C68.1168889,0 74.8928889,0.44 82.3826667,1.78444444 C87.3497778,2.67422222 89.4715556,4.26311111 93.5195556,11.0195556 C98.7946667,19.8146667 103.791111,29.1817778 107.844,36.696 Z M29.3333333,51.3333333 C29.3333333,47.2853333 26.048,44 22,44 C17.952,44 14.6666667,47.2853333 14.6666667,51.3333333 C14.6666667,55.3813333 17.952,58.6666667 22,58.6666667 C26.048,58.6666667 29.3333333,55.3813333 29.3333333,51.3333333 Z M78.2222222,56.2222222 C78.2222222,54.8728889 77.1271111,53.7777778 75.7777778,53.7777778 L41.5555556,53.7777778 C40.2062222,53.7777778 39.1111111,54.8728889 39.1111111,56.2222222 C39.1111111,57.5715556 40.2062222,58.6666667 41.5555556,58.6666667 L75.7777778,58.6666667 C77.1271111,58.6666667 78.2222222,57.5715556 78.2222222,56.2222222 Z M92.6004444,29.2013333 C92.6004444,29.2013333 88.9826667,20.2742222 84.6266667,13.8404444 C83.6391111,12.3835556 82.1088889,11.3862222 80.3782222,11.0733333 C72.9911111,9.74355556 66.5182222,9.31822222 58.6666667,9.31822222 C50.8151111,9.31822222 44.3422222,9.74355556 36.9551111,11.0733333 C35.2244444,11.3813333 33.6942222,12.3786667 32.7066667,13.8404444 C28.3506667,20.2693333 24.7328889,29.2013333 24.7328889,29.2013333 C32.7506667,30.7315556 45.7991111,31.6311111 58.6666667,31.6311111 C71.5342222,31.6311111 84.5826667,30.7315556 92.6004444,29.2013333 Z M102.666667,51.3333333 C102.666667,47.2853333 99.3813333,44 95.3333333,44 C91.2853333,44 88,47.2853333 88,51.3333333 C88,55.3813333 91.2853333,58.6666667 95.3333333,58.6666667 C99.3813333,58.6666667 102.666667,55.3813333 102.666667,51.3333333 Z M13.2097778,19.5555556 L2.44444444,19.5555556 C1.09511111,19.5555556 0,20.6506667 0,22 L0,24.4982222 C0,28.3751111 4.52711111,29.3333333 7.90044444,29.3333333 L13.2097778,19.5555556 Z" id="Shape"></path>
                </g>
            </g>
        </g>
    </g>
</svg>