<?xml version="1.0" encoding="UTF-8"?>
<svg width="209px" height="209px" viewBox="0 0 209 209" version="1.1" xmlns="http://www.w3.org/2000/svg" xmlns:xlink="http://www.w3.org/1999/xlink">
    <title>Group 2</title>
    <defs>
        <linearGradient x1="0%" y1="0%" x2="101.999998%" y2="100.999999%" id="linearGradient-1">
            <stop stop-color="#002092" offset="0%"></stop>
            <stop stop-color="#1AB9C8" offset="100%"></stop>
        </linearGradient>
    </defs>
    <g id="Page-1" stroke="none" stroke-width="1" fill="none" fill-rule="evenodd">
        <g id="Desktop-HD-Copy" transform="translate(-458.000000, -408.000000)">
            <g id="Group-2" transform="translate(458.000000, 408.000000)">
                <rect id="Rectangle" fill="url(#linearGradient-1)" x="0" y="0" width="209" height="209" rx="60"></rect>
                <path d="M70.2826171,133.084 C78.6008685,133.084 85.5414095,130.601522 91.10424,125.636566 C96.6670706,120.671609 100.124344,114.159978 101.47606,106.101672 L102.56783,99.6290328 L88.267724,99.6290328 C80.4816793,99.6290328 73.8192584,105.218677 72.4661581,112.886246 L72.4661581,112.886246 L72.4661581,112.886246 L83.4618466,112.886246 C81.0183603,116.681448 77.0411964,118.579049 71.5303549,118.579049 C67.7871418,118.579049 64.9277427,117.188342 62.9521581,114.406926 C60.9765734,111.625511 60.32671,108.337202 61.002568,104.542 C61.6784258,100.64282 63.4460543,97.458489 66.3054531,94.9890081 C69.164852,92.5195273 72.4661581,91.2847868 76.2093712,91.2847868 C80.8363985,91.2847868 84.2156882,92.9744317 86.3472401,96.3537214 L100.61824,88.6333443 C98.38271,84.7341639 95.3413493,81.6538115 91.4941581,79.3922869 C87.6469668,77.1307622 83.0719286,76 77.7690433,76 C69.6587482,76 62.5882346,78.5864563 56.5575023,83.7593688 C50.5267701,88.9322814 46.835546,95.5998798 45.4838302,103.762164 C44.0801253,112.132404 45.7307783,119.111937 50.4357893,124.700762 C55.1408002,130.289588 61.7564094,133.084 70.2826171,133.084 Z M131.10983,133.084 C139.843994,133.084 147.109467,130.328579 152.906248,124.817738 C158.70303,119.306896 162.199295,112.756273 163.395043,105.165869 C163.966923,101.526634 163.83695,97.9783798 163.005125,94.5211065 C162.1733,91.0638334 160.743601,87.9574863 158.716027,85.2020656 C156.688453,82.4466448 153.907038,80.2241121 150.371781,78.5344673 C146.836524,76.8448224 142.833366,76 138.362306,76 C129.73212,76 122.466647,78.7164289 116.565888,84.1492868 C110.665128,89.5821448 107.090879,96.0677814 105.843142,103.606197 C105.063306,108.493169 105.492215,113.159188 107.129871,117.604254 C108.767527,122.04932 111.691912,125.740544 115.903027,128.677926 C120.114142,131.615309 125.183076,133.084 131.10983,133.084 Z M132.279584,117.799213 C128.432393,117.799213 125.469016,116.551475 123.389453,114.056 C121.30989,111.508536 120.608038,108.337202 121.283896,104.542 C121.959754,100.746798 123.779371,97.5884618 126.742748,95.0669918 C129.706125,92.5455219 133.111409,91.2847868 136.958601,91.2847868 C140.805792,91.2847868 143.769169,92.5455219 145.848732,95.0669918 C147.928295,97.5884618 148.630147,100.746798 147.954289,104.542 C147.278431,108.337202 145.458814,111.495538 142.495437,114.017008 C139.53206,116.538478 136.126776,117.799213 132.279584,117.799213 Z" id="GO" fill="#FFFFFF" fill-rule="nonzero"></path>
            </g>
        </g>
    </g>
</svg>