<?xml version="1.0" encoding="UTF-8"?>
<svg width="292px" height="109px" viewBox="0 0 292 109" version="1.1" xmlns="http://www.w3.org/2000/svg" xmlns:xlink="http://www.w3.org/1999/xlink">
    <title>Group</title>
    <defs>
        <linearGradient x1="0%" y1="0%" x2="101.999998%" y2="100.999999%" id="linearGradient-1">
            <stop stop-color="#002092" offset="0%"></stop>
            <stop stop-color="#1AB9C8" offset="100%"></stop>
        </linearGradient>
    </defs>
    <g id="Page-1" stroke="none" stroke-width="1" fill="none" fill-rule="evenodd">
        <g id="Artboard-Copy-3" transform="translate(-89.000000, -184.000000)">
            <g id="Group" transform="translate(89.000000, 184.000000)">
                <rect id="Rectangle" fill="url(#linearGradient-1)" x="0" y="0" width="109" height="109" rx="25"></rect>
                <path d="M33.4245773,73.084 C38.8284389,73.084 43.3372859,71.4712851 46.9511183,68.2458552 C50.5649507,65.0204253 52.8109307,60.7902149 53.6890582,55.555224 L54.398315,51.3503443 L45.1084065,51.3503443 C40.0502872,51.3503443 35.7221179,54.9815959 34.843091,59.9627486 L34.843091,59.9627486 L34.843091,59.9627486 L41.9863205,59.9627486 C40.3989362,62.4282605 37.8152149,63.6610164 34.2351566,63.6610164 C31.8034189,63.6610164 29.9458414,62.7575583 28.6624243,60.9506421 C27.3790072,59.1437259 26.9568305,57.0075118 27.3958943,54.542 C27.834958,52.0089399 28.9832786,49.9402741 30.840856,48.3360027 C32.6984334,46.7317313 34.843091,45.9295956 37.2748287,45.9295956 C40.2807267,45.9295956 42.4760455,47.027255 43.860785,49.2225738 L53.131785,44.2071148 C51.6794972,41.6740546 49.7037103,39.6729372 47.2044243,38.2037623 C44.7051383,36.7345874 41.7330145,36 38.2880527,36 C33.0192877,36 28.4260054,37.6802632 24.5082057,41.0407896 C20.5904061,44.401316 18.1924425,48.7328488 17.314315,54.035388 C16.4024134,59.4730237 17.4747422,64.0072013 20.5313014,67.6379208 C23.5878606,71.2686403 27.8856192,73.084 33.4245773,73.084 Z M72.940315,73.084 C78.6143697,73.084 83.334305,71.2939709 87.100121,67.7139126 C90.8659371,64.1338543 93.1372476,59.8783133 93.9140527,54.9472896 C94.2855682,52.5831002 94.2011329,50.2780155 93.6607467,48.0320355 C93.1203606,45.7860556 92.1915719,43.768051 90.8743806,41.9780219 C89.5571894,40.1879927 87.7502731,38.7441485 85.453632,37.6464891 C83.1569908,36.5488297 80.5563824,36 77.6518068,36 C72.0453005,36 67.3253651,37.7646985 63.4920008,41.2940956 C59.6586365,44.8234927 57.3366648,49.036816 56.5260855,53.9340656 C56.0194735,57.1088342 56.2981101,60.1400628 57.3619954,63.0277514 C58.4258806,65.9154399 60.3256757,68.3134035 63.0613806,70.2216421 C65.7970855,72.1298807 69.0900637,73.084 72.940315,73.084 Z M73.7002331,63.1544044 C71.2009471,63.1544044 69.2758214,62.3438251 67.924856,60.7226667 C66.5738906,59.0677341 66.1179398,57.0075118 66.5570036,54.542 C66.9960673,52.0764882 68.178162,50.0247095 70.1032877,48.3866639 C72.0284134,46.7486184 74.2406192,45.9295956 76.7399052,45.9295956 C79.2391912,45.9295956 81.1643169,46.7486184 82.5152822,48.3866639 C83.8662476,50.0247095 84.3221985,52.0764882 83.8831347,54.542 C83.444071,57.0075118 82.2619762,59.0592905 80.3368506,60.6973361 C78.4117249,62.3353816 76.199519,63.1544044 73.7002331,63.1544044 Z" id="GO" fill="#FFFFFF" fill-rule="nonzero"></path>
                <path d="M136.123104,65.912 C139.041249,65.912 141.721032,65.2691412 144.162451,63.9834235 C146.60387,62.6977058 148.604677,60.8991457 150.164874,58.5877432 L150.164874,58.5877432 L142.970634,54.0371694 C141.237082,56.2907869 139.171266,57.4175956 136.773186,57.4175956 C134.692923,57.4175956 133.132727,56.7025055 132.092595,55.2723251 C131.052464,53.8421448 130.705754,52.1013698 131.052464,50.05 C131.428067,47.9119526 132.410413,46.1495082 133.999503,44.7626667 C135.588592,43.3758251 137.423268,42.6824044 139.50353,42.6824044 C142.074965,42.6824044 143.95298,43.7369818 145.137574,45.8461366 L145.137574,45.8461366 L153.068574,41.6422732 C150.497138,36.6727577 146.23549,34.188 140.283628,34.188 C135.834178,34.188 131.926463,35.6326266 128.560483,38.5218798 C125.194503,41.411133 123.150357,45.109377 122.428044,49.616612 C121.676838,54.2972022 122.594176,58.1832477 125.180057,61.2747486 C127.765939,64.3662495 131.413621,65.912 136.123104,65.912 Z M162.646448,65.8253224 C166.200229,65.8253224 169.132821,64.7562987 171.444224,62.6182514 C173.784519,60.480204 175.229146,57.9087687 175.778104,54.9039454 C176.327062,51.8124444 175.669757,49.0459845 173.806188,46.6045656 C171.94262,44.1631466 169.277284,42.9424372 165.81018,42.9424372 C162.227506,42.9424372 159.266022,44.0114608 156.925727,46.1495082 C154.585432,48.2875556 153.155251,50.8589909 152.635186,53.8638142 C152.086227,56.9842077 152.729086,59.7578907 154.563762,62.1848634 C156.398438,64.6118361 159.092666,65.8253224 162.646448,65.8253224 Z M163.383207,58.197694 C162.314184,58.197694 161.490747,57.8509836 160.912896,57.1575628 C160.363938,56.4352495 160.190583,55.5106885 160.39283,54.3838798 C160.595078,53.257071 161.100697,52.3397332 161.909688,51.6318661 C162.718679,50.9239991 163.657687,50.5700656 164.72671,50.5700656 C165.795734,50.5700656 166.604725,50.9239991 167.153683,51.6318661 C167.702641,52.3397332 167.875996,53.257071 167.673748,54.3838798 C167.471501,55.5106885 166.973105,56.4280264 166.17856,57.1358934 C165.384015,57.8437605 164.452231,58.197694 163.383207,58.197694 Z M184.489202,65.2185792 L186.526125,53.7771366 C186.988406,51.6968743 188.144107,50.6567432 189.993229,50.6567432 C191.784566,50.6567432 192.50688,51.624643 192.160169,53.5604426 L192.160169,53.5604426 L190.123246,65.2185792 L198.140923,65.2185792 L200.351202,52.6936667 C200.90016,49.5732732 200.575119,47.1679699 199.376079,45.4777568 C198.177039,43.7875437 196.421818,42.9424372 194.110415,42.9424372 C191.65455,42.9424372 189.588734,43.8525519 187.912967,45.6727814 L187.912967,45.6727814 L188.303016,43.5491803 L180.285339,43.5491803 L176.471524,65.2185792 L184.489202,65.2185792 Z M209.409011,65.2185792 L211.445934,53.7771366 C211.908215,51.6968743 213.063916,50.6567432 214.913038,50.6567432 C216.704375,50.6567432 217.426688,51.624643 217.079978,53.5604426 L217.079978,53.5604426 L215.043054,65.2185792 L223.060732,65.2185792 L225.271011,52.6936667 C225.819969,49.5732732 225.494928,47.1679699 224.295888,45.4777568 C223.096848,43.7875437 221.341626,42.9424372 219.030224,42.9424372 C216.574359,42.9424372 214.508543,43.8525519 212.832776,45.6727814 L212.832776,45.6727814 L213.222825,43.5491803 L205.205147,43.5491803 L201.391333,65.2185792 L209.409011,65.2185792 Z M237.969278,65.8253224 C241.696415,65.8253224 244.816809,64.7418525 247.330459,62.5749126 L247.330459,62.5749126 L242.693207,57.8943224 C241.681969,58.8188834 240.352912,59.2811639 238.706038,59.2811639 C236.596883,59.2811639 235.311166,58.5588506 234.848885,57.114224 L234.848885,57.114224 L248.977333,57.114224 C249.381829,56.1607705 249.656308,55.2217632 249.80077,54.2972022 C250.349728,51.1768087 249.721316,48.5042495 247.915533,46.2795246 C246.109749,44.0547996 243.531091,42.9424372 240.179557,42.9424372 C236.943594,42.9424372 234.126572,43.9825683 231.728492,46.0628306 C229.330411,48.1430929 227.871339,50.7723133 227.351273,53.9504918 C226.773422,57.3020255 227.423504,60.1190474 229.301519,62.4015574 C231.179534,64.6840674 234.068787,65.8253224 237.969278,65.8253224 Z M242.779885,51.9569071 L235.628983,51.9569071 C236.524652,50.2233552 237.940386,49.3565792 239.876186,49.3565792 C241.696415,49.3565792 242.664315,50.2233552 242.779885,51.9569071 L242.779885,51.9569071 Z M261.502246,65.8253224 C263.669186,65.8253224 265.669993,65.3485956 267.504669,64.3951421 C269.339345,63.4416885 270.805641,62.0404007 271.903557,60.1912787 L271.903557,60.1912787 L265.619432,56.2041093 C264.781548,57.4753807 263.625847,58.1110164 262.152328,58.1110164 C261.141089,58.1110164 260.353768,57.7570829 259.790363,57.0492158 C259.226959,56.3413488 259.046381,55.4529035 259.248628,54.3838798 C259.450876,53.2859636 259.942049,52.3902951 260.722147,51.6968743 C261.502246,51.0034536 262.426807,50.6567432 263.49583,50.6567432 C264.911564,50.6567432 265.865018,51.2634863 266.356191,52.4769727 L266.356191,52.4769727 L273.637109,48.6631585 C272.799226,46.9584991 271.592962,45.5788807 270.018319,44.5243033 C268.443676,43.4697259 266.5151,42.9424372 264.23259,42.9424372 C261.025519,42.9424372 258.208497,43.968122 255.781524,46.0194918 C253.354552,48.0708616 251.866586,50.7145282 251.317628,53.9504918 C250.76867,57.273133 251.447645,60.0829317 253.354552,62.379888 C255.261459,64.6768443 257.977357,65.8253224 261.502246,65.8253224 Z M278.27436,64.0050929 C280.09459,65.478612 283.171645,65.8831075 287.505524,65.2185792 L287.505524,65.2185792 L288.76235,58.0243388 C286.971013,58.1110164 285.786419,58.0387851 285.208568,57.8076448 C284.630717,57.5765046 284.42847,56.9264226 284.601825,55.8573989 L284.601825,55.8573989 L285.425262,51.1768087 L289.975836,51.1768087 L291.319339,43.5491803 L286.768765,43.5491803 L287.808896,37.4817486 L279.401169,39.8653825 L278.751087,43.5491803 L275.717371,43.5491803 L274.373869,51.1768087 L277.407585,51.1768087 L276.49747,56.2907869 C275.861834,59.9601384 276.454131,62.5315738 278.27436,64.0050929 Z" id="Connect" fill="#000000" fill-rule="nonzero"></path>
            </g>
        </g>
    </g>
</svg>