<?xml version="1.0" encoding="UTF-8"?>
<svg width="292px" height="109px" viewBox="0 0 292 109" version="1.1" xmlns="http://www.w3.org/2000/svg" xmlns:xlink="http://www.w3.org/1999/xlink">
    <title>Group</title>
    <g id="Page-1" stroke="none" stroke-width="1" fill="none" fill-rule="evenodd">
        <g id="Artboard-Copy-7" transform="translate(-89.000000, -184.000000)" fill="#FFFFFF">
            <g id="Group" transform="translate(89.000000, 184.000000)">
                <path d="M84,0 C97.8071187,-2.53632657e-15 109,11.1928813 109,25 L109,84 C109,97.8071187 97.8071187,109 84,109 L25,109 C11.1928813,109 1.69088438e-15,97.8071187 0,84 L0,25 C-1.69088438e-15,11.1928813 11.1928813,2.53632657e-15 25,0 L84,0 Z M37.2880527,36 C32.0192877,36 27.4260054,37.6802632 23.5082057,41.0407896 C19.5904061,44.401316 17.1924425,48.7328488 16.314315,54.035388 C15.4024134,59.4730237 16.4747422,64.0072013 19.5313014,67.6379208 C22.5878606,71.2686403 26.8856192,73.084 32.4245773,73.084 C37.8284389,73.084 42.3372859,71.4712851 45.9511183,68.2458552 C49.5649507,65.0204253 51.8109307,60.7902149 52.6890582,55.555224 L53.398315,51.3503443 L44.1084065,51.3503443 C39.1439561,51.3503443 34.8826708,54.8483504 33.8954571,59.6874212 L33.843091,59.9627486 L40.9863205,59.9627486 C39.3989362,62.4282605 36.8152149,63.6610164 33.2351566,63.6610164 C30.8034189,63.6610164 28.9458414,62.7575583 27.6624243,60.9506421 C26.3790072,59.1437259 25.9568305,57.0075118 26.3958943,54.542 C26.834958,52.0089399 27.9832786,49.9402741 29.840856,48.3360027 C31.6984334,46.7317313 33.843091,45.9295956 36.2748287,45.9295956 C39.2807267,45.9295956 41.4760455,47.027255 42.860785,49.2225738 L52.131785,44.2071148 C50.6794972,41.6740546 48.7037103,39.6729372 46.2044243,38.2037623 C43.7051383,36.7345874 40.7330145,36 37.2880527,36 Z M76.6518068,36 C71.0453005,36 66.3253651,37.7646985 62.4920008,41.2940956 C58.6586365,44.8234927 56.3366648,49.036816 55.5260855,53.9340656 C55.0194735,57.1088342 55.2981101,60.1400628 56.3619954,63.0277514 C57.4258806,65.9154399 59.3256757,68.3134035 62.0613806,70.2216421 C64.7970855,72.1298807 68.0900637,73.084 71.940315,73.084 C77.6143697,73.084 82.334305,71.2939709 86.100121,67.7139126 C89.8659371,64.1338543 92.1372476,59.8783133 92.9140527,54.9472896 C93.2855682,52.5831002 93.2011329,50.2780155 92.6607467,48.0320355 C92.1203606,45.7860556 91.1915719,43.768051 89.8743806,41.9780219 C88.5571894,40.1879927 86.7502731,38.7441485 84.453632,37.6464891 C82.1569908,36.5488297 79.5563824,36 76.6518068,36 Z M75.7399052,45.9295956 C78.2391912,45.9295956 80.1643169,46.7486184 81.5152822,48.3866639 C82.8662476,50.0247095 83.3221985,52.0764882 82.8831347,54.542 C82.444071,57.0075118 81.2619762,59.0592905 79.3368506,60.6973361 C77.4117249,62.3353816 75.199519,63.1544044 72.7002331,63.1544044 C70.2009471,63.1544044 68.2758214,62.3438251 66.924856,60.7226667 C65.5738906,59.0677341 65.1179398,57.0075118 65.5570036,54.542 C65.9960673,52.0764882 67.178162,50.0247095 69.1032877,48.3866639 C71.0284134,46.7486184 73.2406192,45.9295956 75.7399052,45.9295956 Z" id="Combined-Shape"></path>
                <path d="M135.948714,70.724 C138.86686,70.724 141.546642,70.0811412 143.988061,68.7954235 C146.42948,67.5097058 148.430288,65.7111457 149.990485,63.3997432 L149.990485,63.3997432 L142.796244,58.8491694 C141.062692,61.1027869 138.996876,62.2295956 136.598796,62.2295956 C134.518534,62.2295956 132.958337,61.5145055 131.918206,60.0843251 C130.878075,58.6541448 130.531364,56.9133698 130.878075,54.862 C131.253678,52.7239526 132.236024,50.9615082 133.825113,49.5746667 C135.414202,48.1878251 137.248878,47.4944044 139.32914,47.4944044 C141.900576,47.4944044 143.77859,48.5489818 144.963184,50.6581366 L144.963184,50.6581366 L152.894184,46.4542732 C150.322749,41.4847577 146.0611,39 140.109239,39 C135.659789,39 131.752074,40.4446266 128.386094,43.3338798 C125.020114,46.223133 122.975967,49.921377 122.253654,54.428612 C121.502448,59.1092022 122.419786,62.9952477 125.005668,66.0867486 C127.591549,69.1782495 131.239231,70.724 135.948714,70.724 Z M162.472058,70.6373224 C166.02584,70.6373224 168.958432,69.5682987 171.269834,67.4302514 C173.610129,65.292204 175.054756,62.7207687 175.603714,59.7159454 C176.152672,56.6244444 175.495367,53.8579845 173.631799,51.4165656 C171.76823,48.9751466 169.102894,47.7544372 165.635791,47.7544372 C162.053117,47.7544372 159.091632,48.8234608 156.751337,50.9615082 C154.411042,53.0995556 152.980862,55.6709909 152.460796,58.6758142 C151.911838,61.7962077 152.554697,64.5698907 154.389372,66.9968634 C156.224048,69.4238361 158.918277,70.6373224 162.472058,70.6373224 Z M163.208818,63.009694 C162.139794,63.009694 161.316357,62.6629836 160.738506,61.9695628 C160.189548,61.2472495 160.016193,60.3226885 160.218441,59.1958798 C160.420689,58.069071 160.926308,57.1517332 161.735299,56.4438661 C162.54429,55.7359991 163.483297,55.3820656 164.552321,55.3820656 C165.621344,55.3820656 166.430335,55.7359991 166.979293,56.4438661 C167.528251,57.1517332 167.701607,58.069071 167.499359,59.1958798 C167.297111,60.3226885 166.798715,61.2400264 166.00417,61.9478934 C165.209626,62.6557605 164.277842,63.009694 163.208818,63.009694 Z M184.314812,70.0305792 L186.351736,58.5891366 C186.814016,56.5088743 187.969718,55.4687432 189.81884,55.4687432 C191.610177,55.4687432 192.33249,56.436643 191.98578,58.3724426 L191.98578,58.3724426 L189.948856,70.0305792 L197.966534,70.0305792 L200.176812,57.5056667 C200.72577,54.3852732 200.40073,51.9799699 199.201689,50.2897568 C198.002649,48.5995437 196.247428,47.7544372 193.936026,47.7544372 C191.48016,47.7544372 189.414344,48.6645519 187.738577,50.4847814 L187.738577,50.4847814 L188.128627,48.3611803 L180.110949,48.3611803 L176.297135,70.0305792 L184.314812,70.0305792 Z M209.234621,70.0305792 L211.271545,58.5891366 C211.733825,56.5088743 212.889526,55.4687432 214.738648,55.4687432 C216.529985,55.4687432 217.252299,56.436643 216.905588,58.3724426 L216.905588,58.3724426 L214.868665,70.0305792 L222.886342,70.0305792 L225.096621,57.5056667 C225.645579,54.3852732 225.320538,51.9799699 224.121498,50.2897568 C222.922458,48.5995437 221.167237,47.7544372 218.855834,47.7544372 C216.399969,47.7544372 214.334153,48.6645519 212.658386,50.4847814 L212.658386,50.4847814 L213.048435,48.3611803 L205.030758,48.3611803 L201.216944,70.0305792 L209.234621,70.0305792 Z M237.794889,70.6373224 C241.522026,70.6373224 244.642419,69.5538525 247.156069,67.3869126 L247.156069,67.3869126 L242.518818,62.7063224 C241.507579,63.6308834 240.178523,64.0931639 238.531648,64.0931639 C236.422494,64.0931639 235.136776,63.3708506 234.674495,61.926224 L234.674495,61.926224 L248.802944,61.926224 C249.207439,60.9727705 249.481918,60.0337632 249.626381,59.1092022 C250.175339,55.9888087 249.546926,53.3162495 247.741143,51.0915246 C245.93536,48.8667996 243.356701,47.7544372 240.005168,47.7544372 C236.769204,47.7544372 233.952182,48.7945683 231.554102,50.8748306 C229.156022,52.9550929 227.696949,55.5843133 227.176883,58.7624918 C226.599033,62.1140255 227.249115,64.9310474 229.127129,67.2135574 C231.005144,69.4960674 233.894397,70.6373224 237.794889,70.6373224 Z M242.605495,56.7689071 L235.454594,56.7689071 C236.350262,55.0353552 237.765996,54.1685792 239.701796,54.1685792 C241.522026,54.1685792 242.489925,55.0353552 242.605495,56.7689071 L242.605495,56.7689071 Z M261.327856,70.6373224 C263.494796,70.6373224 265.495604,70.1605956 267.33028,69.2071421 C269.164955,68.2536885 270.631251,66.8524007 271.729168,65.0032787 L271.729168,65.0032787 L265.445042,61.0161093 C264.607158,62.2873807 263.451457,62.9230164 261.977938,62.9230164 C260.966699,62.9230164 260.179378,62.5690829 259.615974,61.8612158 C259.052569,61.1533488 258.871991,60.2649035 259.074239,59.1958798 C259.276486,58.0979636 259.767659,57.2022951 260.547758,56.5088743 C261.327856,55.8154536 262.252417,55.4687432 263.321441,55.4687432 C264.737175,55.4687432 265.690628,56.0754863 266.181801,57.2889727 L266.181801,57.2889727 L273.462719,53.4751585 C272.624836,51.7704991 271.418573,50.3908807 269.84393,49.3363033 C268.269287,48.2817259 266.34071,47.7544372 264.0582,47.7544372 C260.851129,47.7544372 258.034107,48.780122 255.607135,50.8314918 C253.180162,52.8828616 251.692197,55.5265282 251.143239,58.7624918 C250.594281,62.085133 251.273255,64.8949317 253.180162,67.191888 C255.087069,69.4888443 257.802967,70.6373224 261.327856,70.6373224 Z M278.099971,68.8170929 C279.9202,70.290612 282.997255,70.6951075 287.331135,70.0305792 L287.331135,70.0305792 L288.58796,62.8363388 C286.796623,62.9230164 285.612029,62.8507851 285.034179,62.6196448 C284.456328,62.3885046 284.25408,61.7384226 284.427435,60.6693989 L284.427435,60.6693989 L285.250872,55.9888087 L289.801446,55.9888087 L291.144949,48.3611803 L286.594375,48.3611803 L287.634506,42.2937486 L279.22678,44.6773825 L278.576698,48.3611803 L275.542982,48.3611803 L274.199479,55.9888087 L277.233195,55.9888087 L276.32308,61.1027869 C275.687444,64.7721384 276.279741,67.3435738 278.099971,68.8170929 Z" id="Connect" fill-rule="nonzero"></path>
            </g>
        </g>
    </g>
</svg>