<?xml version="1.0" encoding="UTF-8"?>
<svg width="53px" height="48px" viewBox="0 0 53 48" version="1.1" xmlns="http://www.w3.org/2000/svg" xmlns:xlink="http://www.w3.org/1999/xlink">
    <title>Combined Shape</title>
    <g id="Landing" stroke="none" stroke-width="1" fill="none" fill-rule="evenodd">
        <g id="Desktop-HD-Copy-2" transform="translate(-532.000000, -329.000000)" fill="#FFFFFF" fill-rule="nonzero">
            <path d="M556.971839,329.897198 L557.414853,329.898572 C566.578319,330.063185 574.150525,334.836967 578.156112,343.067625 C585.580815,358.384319 585.685215,362.941643 583.071642,370.918489 L582.889286,371.46783 C582.796056,371.745317 582.699789,372.027152 582.600667,372.313897 C581.832473,374.56361 579.582759,376.1 577.223304,376.1 C576.894078,376.1 576.50998,376.045129 576.180754,375.990258 L576.180754,375.990258 L541.886345,369.515473 C540.349955,369.241118 539.087921,368.363181 538.209984,367.101147 C535.356689,362.876076 529.375744,352.066478 534.533624,342.29943 C538.429468,334.891838 547.812419,329.78883 557.414853,329.898572 Z M561.475311,342.464044 C555.549237,341.421494 554.342074,345.042983 554.12259,346.195275 C553.025169,351.682381 559.719438,360.022781 569.651098,362.217623 C574.91872,363.369915 578.814565,363.918626 581.612988,364.192981 C581.997086,359.748426 580.515567,354.700289 575.522301,344.38453 C575.193075,343.726078 574.863849,343.067625 574.479751,342.464044 C571.626456,343.012754 567.181901,343.451723 561.475311,342.464044 Z M559.884051,344.87837 C561.672013,344.87837 563.121443,346.3278 563.121443,348.115762 C563.121443,349.903724 561.672013,351.353154 559.884051,351.353154 C558.096088,351.353154 556.646659,349.903724 556.646659,348.115762 C556.646659,346.3278 558.096088,344.87837 559.884051,344.87837 Z" id="Combined-Shape"></path>
        </g>
    </g>
</svg>