<?xml version="1.0" encoding="UTF-8"?>
<svg width="58px" height="38px" viewBox="0 0 58 38" version="1.1" xmlns="http://www.w3.org/2000/svg" xmlns:xlink="http://www.w3.org/1999/xlink">
    <title>Combined Shape</title>
    <g id="Landing" stroke="none" stroke-width="1" fill="none" fill-rule="evenodd">
        <g id="Desktop-HD-Copy-2" transform="translate(-876.000000, -335.000000)" fill="#FFFFFF" fill-rule="nonzero">
            <path d="M926.666337,361.719802 C929.557426,361.719802 931.942574,364.10495 931.942574,366.99604 L931.942574,366.99604 L931.942574,367.357426 C931.725743,370.031683 929.412871,372.2 926.666337,372.2 C923.847525,372.2 921.606931,370.10396 921.390099,367.357426 L921.390099,367.357426 L921.390099,366.99604 C921.390099,364.10495 923.775248,361.719802 926.666337,361.719802 Z M881.276238,361.719802 C884.167327,361.719802 886.552475,364.10495 886.552475,366.99604 L886.552475,366.99604 L886.552475,367.357426 C886.335644,370.031683 884.022772,372.2 881.276238,372.2 C878.457426,372.2 876.216832,370.10396 876,367.357426 L876,367.357426 L876,366.99604 C876,364.10495 878.385149,361.719802 881.276238,361.719802 Z M924.642574,335.7 C929.70198,335.7 933.821782,339.819802 933.821782,344.879208 L933.821782,344.879208 L933.821782,362.876238 C933.821782,363.382178 933.09901,363.59901 932.737624,363.093069 C931.508911,361.141584 929.268317,359.768317 926.666337,359.768317 C922.691089,359.768317 919.438614,363.020792 919.438614,366.99604 L919.438614,366.99604 L919.438614,367.357426 L888.50396,367.357426 L888.50396,367.357426 L888.50396,366.99604 C888.50396,365.044554 887.708911,363.309901 886.480198,362.008911 C885.974257,361.430693 885.323762,360.924752 884.60099,360.563366 C883.589109,360.057426 882.432673,359.768317 881.276238,359.768317 C880.481188,359.768317 879.686139,359.912871 878.963366,360.129703 C878.457426,360.274257 878.09604,359.69604 878.385149,359.334653 L878.385149,359.334653 L880.481188,356.588119 C880.842574,356.226733 881.348515,355.937624 881.854455,355.937624 L881.854455,355.937624 L884.60099,355.937624 L884.60099,351.09505 C884.60099,350.661386 884.673267,350.227723 884.817822,349.794059 L884.817822,349.794059 L889.009901,339.458416 C889.949505,337.217822 892.190099,335.7 894.647525,335.7 L894.647525,335.7 Z M920.59505,339.024752 L898.044554,339.024752 L898.044554,364.032673 L907.223762,364.032673 L907.223762,358.467327 L901.29703,358.467327 C900.50198,358.467327 899.779208,357.744554 899.779208,356.949505 C899.779208,356.154455 900.429703,355.431683 901.29703,355.431683 L901.29703,355.431683 L907.223762,355.431683 L907.223762,349.938614 C907.223762,349.143564 907.874257,348.420792 908.741584,348.420792 C909.608911,348.420792 910.259406,349.071287 910.187129,349.938614 L910.187129,349.938614 L910.187129,364.032673 L912.933663,364.032673 L915.391089,356.588119 C916.041584,354.708911 917.70396,353.480198 919.655446,353.480198 L919.655446,353.480198 L920.59505,353.480198 L920.59505,339.024752 Z M894.936634,339.024752 L894.647525,339.024752 C893.563366,339.024752 892.551485,339.747525 892.117822,340.759406 L892.117822,340.759406 L887.853465,351.09505 L887.853465,351.962376 L894.936634,351.962376 L894.936634,339.024752 Z" id="Combined-Shape"></path>
        </g>
    </g>
</svg>