<?xml version="1.0" encoding="UTF-8"?>
<svg width="142px" height="51px" viewBox="0 0 142 51" version="1.1" xmlns="http://www.w3.org/2000/svg" xmlns:xlink="http://www.w3.org/1999/xlink">
    <!-- Generator: Sketch 54.1 (76490) - https://sketchapp.com -->
    <title>Combined-Shape</title>
    <desc>Created with Sketch.</desc>
    <g id="Landing-Page" stroke="none" stroke-width="1" fill="none" fill-rule="evenodd">
        <g id="Desktop-HD-Copy" transform="translate(-80.000000, -30.000000)" fill="#FFFFFF" fill-rule="nonzero">
            <path d="M213.367781,30 C218.135224,30 222,33.870081 222,38.6440678 L222,72.3559322 C222,77.0801901 218.215321,80.9192752 213.516466,80.9987436 L213.367781,81 L179.702128,81 C174.934685,81 171.069909,77.129919 171.069909,72.3559322 L171.069909,38.6440678 C171.069909,33.870081 174.934685,30 179.702128,30 L213.367781,30 Z M129.578068,76.2406381 L129.575942,76.390467 C129.543345,77.5283807 129.135874,78.4185391 128.353531,79.0609411 C127.537172,79.7312743 126.557542,80.0664407 125.414639,80.0664407 C124.500318,80.0664407 123.711171,79.8947699 123.0472,79.5514288 C122.383228,79.2080878 121.882528,78.714875 121.5451,78.0717913 L121.5451,78.0717913 L122.785965,77.3687594 L122.833704,77.4618413 C123.293945,78.3153635 124.165142,78.7421245 125.447294,78.7421245 L125.447294,78.7421245 L125.595227,78.7398049 C126.374111,78.7150639 126.991492,78.4923927 127.447372,78.0717913 C127.931745,77.624903 128.173932,77.0145186 128.173932,76.2406381 L128.173932,76.2406381 L128.173932,75.079818 L128.095794,75.1945153 C127.382064,76.2080223 126.38494,76.714776 125.104423,76.714776 C123.939752,76.714776 122.954679,76.3005868 122.149205,75.4722077 C121.343731,74.6438289 120.940994,73.6356048 120.940994,72.4475349 C120.940994,71.2594652 121.343731,70.2539659 122.149205,69.4310368 C122.954679,68.6081078 123.939752,68.1966433 125.104423,68.1966433 C126.443252,68.1966433 127.466421,68.7361795 128.173932,69.815252 L128.173932,69.815252 L128.173932,68.4091879 L129.578068,68.4091879 L129.578068,76.2406381 Z M115.885288,68.1966433 L116.040442,68.1989922 C117.170772,68.2334427 118.136781,68.6468492 118.938469,69.4392116 C119.776597,70.2675905 120.195661,71.2867145 120.195661,72.4965837 C120.195661,73.7064528 119.776597,74.7255768 118.938469,75.5539559 C118.100341,76.3823347 117.082614,76.7965242 115.885288,76.7965242 C114.687962,76.7965242 113.672956,76.3823347 112.84027,75.5539559 C112.007584,74.7255768 111.591241,73.7064528 111.591241,72.4965837 C111.591241,71.2867145 112.007584,70.2675905 112.84027,69.4392116 C113.672956,68.6108327 114.687962,68.1966433 115.885288,68.1966433 L115.885288,68.1966433 Z M160.826632,68.1966433 C161.490603,68.1966433 162.081103,68.3465145 162.59813,68.6462568 C163.115157,68.9459992 163.504288,69.3629136 163.765522,69.897 L163.765522,69.897 L162.573639,70.5673329 L162.53367,70.4783219 C162.228567,69.8400803 161.659554,69.5209595 160.826632,69.5209595 L160.826632,69.5209595 L160.707606,69.5238207 C160.355919,69.5409878 160.052724,69.6354066 159.79802,69.8070772 C159.515015,69.9978224 159.373513,70.2675905 159.373513,70.6163816 C159.373513,70.9324735 159.531343,71.1858921 159.847001,71.3766372 C160.16266,71.5673823 160.543628,71.7199785 160.989903,71.8344256 C161.43618,71.9488726 161.882455,72.0796693 162.328732,72.2268155 C162.775007,72.3739618 163.155975,72.6246554 163.471633,72.9788964 C163.787292,73.3331372 163.945121,73.7882006 163.945121,74.3440864 C163.945121,75.0852677 163.659396,75.6793027 163.087945,76.1261911 C162.516494,76.5730798 161.784493,76.7965242 160.89194,76.7965242 C160.097351,76.7965242 159.417053,76.6221284 158.851044,76.2733373 C158.285035,75.9245461 157.882298,75.4613079 157.642833,74.8836227 L157.642833,74.8836227 L158.867371,74.1805908 L158.902406,74.2769851 C159.0396,74.6241866 159.272829,74.9026972 159.602094,75.1125168 C159.961292,75.3414113 160.39124,75.4558583 160.89194,75.4558583 L160.89194,75.4558583 L161.029905,75.4531605 C161.436451,75.4369745 161.776873,75.3479509 162.051169,75.1860899 C162.355943,75.0062449 162.50833,74.7255768 162.50833,74.3440864 C162.50833,74.0279944 162.350501,73.7745763 162.034842,73.5838311 C161.719184,73.3930859 161.338216,73.2404896 160.89194,73.1260426 C160.445664,73.0115956 159.999388,72.878074 159.553112,72.7254778 C159.106836,72.5728817 158.725869,72.3221881 158.41021,71.973397 C158.094551,71.6246059 157.936722,71.1777173 157.936722,70.6327312 C157.936722,69.9242493 158.211563,69.3411141 158.761244,68.8833258 C159.310926,68.4255375 159.999388,68.1966433 160.826632,68.1966433 Z M137.028153,68.1966433 C137.692125,68.1966433 138.282624,68.3465145 138.799651,68.6462568 C139.316679,68.9459992 139.705809,69.3629136 139.967044,69.897 L139.967044,69.897 L138.77516,70.5673329 L138.735192,70.4783219 C138.430088,69.8400803 137.861076,69.5209595 137.028153,69.5209595 L137.028153,69.5209595 L136.909128,69.5238207 C136.557441,69.5409878 136.254245,69.6354066 135.999541,69.8070772 C135.716537,69.9978224 135.575035,70.2675905 135.575035,70.6163816 C135.575035,70.9324735 135.732864,71.1858921 136.048523,71.3766372 C136.364182,71.5673823 136.745149,71.7199785 137.191425,71.8344256 C137.637701,71.9488726 138.083977,72.0796693 138.530253,72.2268155 C138.976529,72.3739618 139.357496,72.6246554 139.673155,72.9788964 C139.988814,73.3331372 140.146643,73.7882006 140.146643,74.3440864 C140.146643,75.0852677 139.860917,75.6793027 139.289467,76.1261911 C138.718016,76.5730798 137.986014,76.7965242 137.093462,76.7965242 C136.298873,76.7965242 135.618574,76.6221284 135.052565,76.2733373 C134.486557,75.9245461 134.08382,75.4613079 133.844355,74.8836227 L133.844355,74.8836227 L135.068893,74.1805908 L135.103928,74.2769851 C135.241121,74.6241866 135.474351,74.9026972 135.803615,75.1125168 C136.162813,75.3414113 136.592762,75.4558583 137.093462,75.4558583 L137.093462,75.4558583 L137.231427,75.4531605 C137.637973,75.4369745 137.978395,75.3479509 138.252691,75.1860899 C138.557465,75.0062449 138.709852,74.7255768 138.709852,74.3440864 C138.709852,74.0279944 138.552023,73.7745763 138.236364,73.5838311 C137.920705,73.3930859 137.539738,73.2404896 137.093462,73.1260426 C136.647186,73.0115956 136.20091,72.878074 135.754634,72.7254778 C135.308358,72.5728817 134.92739,72.3221881 134.611732,71.973397 C134.296073,71.6246059 134.138244,71.1777173 134.138244,70.6327312 C134.138244,69.9242493 134.413084,69.3411141 134.962766,68.8833258 C135.512448,68.4255375 136.20091,68.1966433 137.028153,68.1966433 Z M157.289352,74.6710781 L157.212381,74.8069218 C156.868733,75.3870813 156.39369,75.8568121 155.787252,76.216114 C155.134165,76.603054 154.410327,76.7965242 153.615738,76.7965242 C152.385758,76.7965242 151.362588,76.3850597 150.54623,75.5621306 C149.729871,74.7392015 149.321692,73.7173526 149.321692,72.4965837 C149.321692,71.2758148 149.729871,70.2539659 150.54623,69.4310368 C151.362588,68.6081078 152.385758,68.1966433 153.615738,68.1966433 C154.421212,68.1966433 155.14505,68.3901134 155.787252,68.7770535 C156.429454,69.1639936 156.908384,69.6844553 157.224043,70.3384387 L157.224043,70.3384387 L156.032159,71.0251212 L155.978132,70.9179406 C155.77151,70.531606 155.47114,70.2185417 155.07702,69.9787479 C154.647071,69.7171545 154.159977,69.5863579 153.615738,69.5863579 L153.615738,69.5863579 L153.480913,69.5889314 C152.7239,69.6180983 152.085821,69.8951833 151.566678,70.4201866 C151.016996,70.9760724 150.742156,71.6682048 150.742156,72.4965837 C150.742156,73.3140627 151.016996,74.0007453 151.566678,74.556631 C152.11636,75.1125168 152.79938,75.3904599 153.615738,75.3904599 L153.615738,75.3904599 L153.762818,75.3872845 C154.248584,75.3661156 154.689373,75.2391022 155.085183,75.0062449 C155.520575,74.7501013 155.85256,74.4040352 156.081141,73.9680461 L156.081141,73.9680461 L157.289352,74.6710781 Z M145.463585,76.5839796 L145.303616,76.6038061 C145.040138,76.634352 144.79235,76.6524065 144.560251,76.6579698 L144.422874,76.6598088 C143.70024,76.6616219 143.138264,76.5355231 142.736947,76.281512 C142.160054,75.9163714 141.871607,75.2269642 141.871607,74.21329 L141.871607,74.21329 L141.871607,69.7825529 L140.255217,69.7825529 L140.255217,68.4091879 L141.871607,68.4091879 L141.871607,66.5453354 L143.292071,66.1202462 L143.292071,68.4091879 L145.463585,68.4091879 L145.463585,69.7825529 L143.292071,69.7825529 L143.292071,74.21329 L143.293715,74.3116711 C143.305771,74.6634523 143.384138,74.9167762 143.528815,75.0716429 C143.686644,75.2405886 143.928831,75.3277865 144.255374,75.3332361 C144.33701,75.3345989 144.423408,75.3351097 144.514568,75.3347692 L144.654879,75.3336195 C144.894685,75.330639 145.164253,75.3223368 145.463585,75.3087121 L145.463585,75.3087121 L145.463585,76.5839796 Z M148.086543,68.4091879 L148.086543,76.5839796 L146.666079,76.5839796 L146.666079,68.4091879 L148.086543,68.4091879 Z M132.674515,68.4091879 L132.674515,76.5839796 L131.254051,76.5839796 L131.254051,68.4091879 L132.674515,68.4091879 Z M106.551862,65.1392713 L106.551862,75.145216 L111.482668,75.145216 L111.482668,76.5839796 L105.033435,76.5839796 L105.033435,65.1392713 L106.551862,65.1392713 Z M115.885288,69.5863579 L115.744445,69.5892431 C115.000212,69.6200188 114.366861,69.897 113.844391,70.4201866 C113.289267,70.9760724 113.011705,71.6682048 113.011705,72.4965837 C113.011705,73.3249625 113.289267,74.0170947 113.844391,74.5729809 C114.399515,75.1288666 115.079814,75.4068097 115.885288,75.4068097 L115.885288,75.4068097 L116.020138,75.4042359 C116.777436,75.3750691 117.418228,75.0979839 117.942511,74.5729809 C118.497635,74.0170947 118.775197,73.3249625 118.775197,72.4965837 C118.775197,71.6682048 118.497635,70.9760724 117.942511,70.4201866 C117.387387,69.8643008 116.701646,69.5863579 115.885288,69.5863579 L115.885288,69.5863579 Z M125.267695,69.5536587 L125.131081,69.5562322 C124.364073,69.5853991 123.718428,69.8624842 123.194144,70.3874875 C122.63902,70.9433733 122.361458,71.6300558 122.361458,72.4475349 C122.361458,73.2759139 122.63902,73.9680461 123.194144,74.5239318 C123.749268,75.079818 124.440452,75.3577607 125.267695,75.3577607 L125.267695,75.3577607 L125.404309,75.3551873 C126.171317,75.3260205 126.816962,75.0489353 127.341246,74.5239318 C127.89637,73.9680461 128.173932,73.2759139 128.173932,72.4475349 C128.173932,71.6300558 127.89637,70.9433733 127.341246,70.3874875 C126.786122,69.8316016 126.094939,69.5536587 125.267695,69.5536587 L125.267695,69.5536587 Z M193.234507,37.779661 L183.675142,49.1878222 C183.538564,49.3283137 183.406151,49.4748843 183.278264,49.6275025 C183.192997,49.729259 183.110724,49.8325332 183.031435,49.9372177 L182.914737,50.0952887 L182.904018,50.1079579 C180.519104,53.439783 181.064799,58.101548 184.252657,60.7801508 C187.597225,63.5904291 192.583592,63.1535797 195.390018,59.8044205 C195.471139,59.707611 195.549551,59.6094279 195.624607,59.5099681 C195.930141,60.2992137 196.368292,61.0524539 196.941915,61.7370093 C197.560357,62.4750509 198.284659,63.071667 199.073924,63.5232747 L199.257197,63.6249161 L193.036847,68.8508809 L196.219755,72.6493292 L207.612182,63.0767285 C207.771048,62.9621205 207.926867,62.8408014 208.079276,62.7127396 C208.180893,62.6273557 208.279825,62.5399568 208.376063,62.4506501 L208.518399,62.3152726 L208.531152,62.3046598 C211.457606,59.438157 211.7286,54.7523258 209.053668,51.5600913 C206.247243,48.2109321 201.260876,47.7740827 197.916308,50.584361 C197.457699,50.9697076 197.053773,51.3960977 196.706262,51.8536881 C196.240929,50.6486623 195.473854,49.5409502 194.415625,48.6517722 C194.069145,48.3606419 193.705045,48.1043593 193.327575,47.8825524 L193.137745,47.7745202 L189.816107,51.7386113 C190.386231,51.8072058 190.943598,52.0369479 191.4163,52.434137 C192.711861,53.5227338 192.880849,55.4569171 191.793744,56.7542562 C190.706639,58.0515954 188.775107,58.2208145 187.479546,57.1322177 C186.239269,56.0900731 186.031472,54.2729674 186.969789,52.9815407 L187.037114,52.8923105 L187.0884,52.8284668 L191.808334,47.1950747 L197.027749,40.9669375 L193.234507,37.779661 Z M147.384475,65.0084746 L147.470142,65.0120069 C147.694825,65.0308459 147.889408,65.125041 148.053889,65.2945923 C148.23893,65.4853374 148.331451,65.7115066 148.331451,65.9731 C148.331451,66.2346933 148.23893,66.4581376 148.053889,66.6434329 C147.868847,66.8287282 147.645709,66.9213758 147.384475,66.9213758 C147.112355,66.9213758 146.883775,66.8287282 146.698734,66.6434329 C146.513692,66.4581376 146.421172,66.2346933 146.421172,65.9731 C146.421172,65.7115066 146.513692,65.4853374 146.698734,65.2945923 C146.883775,65.1038471 147.112355,65.0084746 147.384475,65.0084746 L147.384475,65.0084746 Z M131.972446,65.0084746 L132.058114,65.0120069 C132.282797,65.0308459 132.477379,65.125041 132.64186,65.2945923 C132.826902,65.4853374 132.919422,65.7115066 132.919422,65.9731 C132.919422,66.2346933 132.826902,66.4581376 132.64186,66.6434329 C132.456819,66.8287282 132.233681,66.9213758 131.972446,66.9213758 C131.700327,66.9213758 131.471747,66.8287282 131.286705,66.6434329 C131.101664,66.4581376 131.009143,66.2346933 131.009143,65.9731 C131.009143,65.7115066 131.101664,65.4853374 131.286705,65.2945923 C131.471747,65.1038471 131.700327,65.0084746 131.972446,65.0084746 L131.972446,65.0084746 Z M121.466411,40.7722373 C123.365499,40.7722373 124.979724,41.4378305 126.309085,42.7690169 C127.638447,44.1002034 128.303128,45.7166441 128.303128,47.618339 C128.303128,48.8354237 127.96604,49.962178 127.291863,50.9986017 C126.617687,52.0350254 125.729863,52.8384915 124.628392,53.409 L124.628392,53.409 L129.665471,59.3950169 L129.665634,60.3078305 L124.671195,60.3078305 L119.781401,54.1791864 L118.048052,54.1791864 L118.048052,60.7400339 L113.49024,57.7146102 L113.49024,40.7722373 L121.466411,40.7722373 Z M87.5203891,39.940678 L87.7323402,39.9428618 C89.2787508,39.9748923 90.6514074,40.3592576 91.85031,41.0959576 C93.1037082,41.8661441 94.091234,42.9833898 94.8128875,44.4476949 L94.8128875,44.4476949 L90.967234,46.7012034 C90.6064073,45.9405254 90.1601216,45.3652627 89.6283769,44.9754153 C89.0966322,44.5855678 88.3939696,44.3906441 87.5203891,44.3906441 L87.5203891,44.3906441 L87.3857437,44.3926092 C86.7671474,44.4109499 86.2850322,44.5576763 85.9393982,44.8327881 C85.569076,45.1275508 85.3839149,45.4841186 85.3839149,45.9024915 C85.3839149,46.3969322 85.6165532,46.8248136 86.0818298,47.1861356 C86.5471064,47.5474576 87.5108936,47.9468136 88.9731915,48.3842034 C89.7708085,48.6314237 90.3880122,48.8311017 90.8248024,48.9832373 C91.2615927,49.1353729 91.817076,49.3873475 92.4912523,49.739161 C93.1654286,50.0909746 93.6781824,50.4618051 94.0295137,50.8516525 C94.380845,51.2415 94.6941945,51.7549576 94.9695623,52.3920254 C95.2449301,53.0290932 95.382614,53.7564915 95.382614,54.5742203 C95.382614,56.4759153 94.6989422,57.9735 93.3315988,59.0669746 C91.9642553,60.1604492 90.1791125,60.7071864 87.9761702,60.7071864 C85.9441459,60.7071864 84.2492097,60.2650424 82.8913617,59.3807542 C81.5335137,58.4964661 80.5697264,57.2936441 80,55.7722881 L80,55.7722881 L83.9311125,53.4902542 L83.9311125,53.4902542 L83.9905423,53.6235822 C84.7971746,55.379341 86.1731944,56.2572203 88.1186018,56.2572203 L88.1186018,56.2572203 L88.2556021,56.2561513 C89.9684023,56.22907 90.8248024,55.6874433 90.8248024,54.6312712 C90.8248024,54.0417458 90.5351915,53.5805847 89.9559696,53.2477881 C89.3767477,52.9149915 88.2895198,52.5298983 86.6942857,52.0925085 C85.8586869,51.8643051 85.127538,51.6075763 84.5008389,51.322322 C83.8741398,51.0370678 83.2616839,50.6614831 82.6634711,50.1955678 C82.0652584,49.7296525 81.6094772,49.1448814 81.2961277,48.4412542 C80.9827781,47.7376271 80.8261033,46.9294068 80.8261033,46.0165932 C80.8261033,44.1719492 81.4860365,42.6981356 82.8059027,41.5951525 C84.125769,40.4921695 85.6972644,39.940678 87.5203891,39.940678 L87.5203891,39.940678 Z M107.000196,40.3400339 L111.558008,44.6620678 L111.558008,53.8610847 C111.558008,55.9529492 110.836354,57.6169322 109.393047,58.8530339 C107.94974,60.0891356 106.107625,60.7071864 103.866701,60.7071864 C101.625777,60.7071864 99.7836612,60.0891356 98.3403542,58.8530339 C96.8970472,57.6169322 96.1753937,55.9529492 96.1753937,53.8610847 L96.1753937,53.8610847 L96.1753937,40.3400339 L100.733205,44.6620678 L100.733205,53.4617288 C100.733205,55.3253898 101.777704,56.2572203 103.866701,56.2572203 L103.866701,56.2572203 L103.995903,56.256007 C105.998765,56.2179896 107.000196,55.2865636 107.000196,53.4617288 L107.000196,53.4617288 L107.000196,40.3400339 Z M129.665634,40.3400339 L142.151976,40.3728814 L142.057184,44.7329492 L134.223445,44.7329492 L134.223445,48.0418983 L141.345026,48.0418983 L141.345026,52.3777627 L134.223445,52.3777627 L134.223445,55.9149153 L142.199616,55.9149153 L142.199616,60.3078305 L130.434064,60.3078305 L129.665471,59.3950169 L129.665634,40.3400339 Z M157.002829,40.3400339 C158.787971,40.3400339 160.283503,40.8677542 161.489424,41.9231949 C162.695345,42.9786356 163.298306,44.3526102 163.298306,46.0451186 C163.298306,47.6425424 162.719084,48.9452034 161.56064,49.9531017 C163.193856,50.9990339 164.010464,52.5013729 164.010464,54.4601186 C164.010464,56.190661 163.39326,57.5979153 162.158853,58.6818814 C160.924446,59.7658475 159.39568,60.3078305 157.572555,60.3078305 L157.572555,60.3078305 L149.197576,60.3078305 L149.197576,40.3400339 L157.002829,40.3400339 Z M205.243214,54.5914915 C206.330319,55.8888307 206.161332,57.823014 204.865771,58.9116108 C203.57021,60.0002076 201.638678,59.8309885 200.551574,58.5336493 C199.464469,57.2363101 199.633456,55.3021269 200.929017,54.2135301 C202.224578,53.1249332 204.15611,53.2941524 205.243214,54.5914915 Z M157.572555,52.2066102 L153.755388,52.2066102 L153.755388,56.0290169 L157.572555,56.0290169 C158.142281,56.0290169 158.598063,55.8531102 158.939898,55.5012966 C159.281734,55.1494831 159.452652,54.688322 159.452652,54.1178136 C159.452652,53.5473051 159.281734,53.0861441 158.939898,52.7343305 C158.598063,52.3825169 158.142281,52.2066102 157.572555,52.2066102 L157.572555,52.2066102 Z M121.466411,45.0510508 L118.048052,45.0510508 L118.048052,50.1856271 L121.466411,50.1856271 C122.09311,50.1856271 122.629602,49.9384068 123.075888,49.4439661 C123.522173,48.9495254 123.745316,48.3409831 123.745316,47.618339 C123.745316,46.8956949 123.522173,46.2871525 123.075888,45.7927119 C122.629602,45.2982712 122.09311,45.0510508 121.466411,45.0510508 L121.466411,45.0510508 Z M157.002829,44.6188475 L153.755388,44.6188475 L153.755388,48.156 L157.002829,48.156 C157.515582,48.156 157.933382,47.9896017 158.256227,47.6568051 C158.579072,47.3240085 158.740494,46.9008814 158.740494,46.3874237 C158.740494,45.8739661 158.579072,45.450839 158.256227,45.1180424 C157.933382,44.7852458 157.515582,44.6188475 157.002829,44.6188475 L157.002829,44.6188475 Z" id="Combined-Shape"></path>
        </g>
    </g>
</svg>