<?xml version="1.0" encoding="UTF-8"?>
<svg width="120px" height="43px" viewBox="0 0 120 43" version="1.1" xmlns="http://www.w3.org/2000/svg" xmlns:xlink="http://www.w3.org/1999/xlink">
    <!-- Generator: Sketch 54.1 (76490) - https://sketchapp.com -->
    <title>sure b logo</title>
    <desc>Created with Sketch.</desc>
    <g id="KYC" stroke="none" stroke-width="1" fill="none" fill-rule="evenodd">
        <g id="Desktop-HD-Copy-2" transform="translate(-79.000000, -8.000000)" fill-rule="nonzero">
            <g id="Group-3">
                <g id="sure-b-logo" transform="translate(79.000000, 8.000000)">
                    <path d="M6.73423729,25.8903729 C8.59416949,25.8903729 10.1013559,25.4293983 11.2557966,24.5074492 C12.4102373,23.5855 12.9874576,22.3228305 12.9874576,20.7194407 C12.9874576,20.0299831 12.8712119,19.4166864 12.6387203,18.8795508 C12.4062288,18.3424153 12.1416695,17.9095 11.8450424,17.5808051 C11.5484153,17.2521102 11.1155,16.9394492 10.5462966,16.642822 C9.97709322,16.3461949 9.50810169,16.1337458 9.13932203,16.0054746 C8.77054237,15.8772034 8.24944068,15.7088475 7.57601695,15.5004068 C6.34140678,15.1316271 5.52768644,14.7949153 5.13485593,14.4902712 C4.74202542,14.1856271 4.54561017,13.8248644 4.54561017,13.4079831 C4.54561017,13.0552373 4.70194068,12.7546017 5.01460169,12.5060763 C5.32726271,12.2575508 5.77220339,12.1332881 6.34942373,12.1332881 C7.08698305,12.1332881 7.68023729,12.2976356 8.12918644,12.6263305 C8.57813559,12.9550254 8.9549322,13.4400508 9.25957627,14.0814068 L12.5064407,12.1813898 C11.8971525,10.9467797 11.0633898,10.0047881 10.0051525,9.35541525 C8.94691525,8.70604237 7.72833898,8.38135593 6.34942373,8.38135593 C4.81016949,8.38135593 3.48336441,8.84633898 2.36900847,9.77630508 C1.25465254,10.7062712 0.697474576,11.9488983 0.697474576,13.5041864 C0.697474576,14.2738136 0.829754237,14.9552542 1.09431356,15.5485085 C1.35887288,16.1417627 1.74368644,16.6348051 2.24875424,17.0276356 C2.75382203,17.4204661 3.27091525,17.7371356 3.8000339,17.9776441 C4.32915254,18.2181525 4.94645763,18.4346102 5.65194915,18.6270169 C6.99879661,18.9957966 7.91673729,19.3204831 8.40577119,19.6010763 C8.89480508,19.8816695 9.13932203,20.2704915 9.13932203,20.7675424 C9.13932203,21.6814746 8.37771186,22.1384407 6.85449153,22.1384407 C5.1709322,22.1384407 3.99244068,21.3607966 3.31901695,19.8055085 L-4.97139053e-13,21.7295763 C0.481016949,23.0122881 1.29473729,24.0264322 2.44116102,24.7720085 C3.58758475,25.5175847 5.01861017,25.8903729 6.73423729,25.8903729 Z M20.1505261,25.8903729 C22.0425261,25.8903729 23.5978142,25.3692712 24.8163905,24.3270678 C26.0349668,23.2848644 26.6442549,21.8818983 26.6442549,20.1181695 L26.6442549,12.3621356 L22.7961193,8.7180678 L22.7961193,19.7814576 C22.7961193,21.3527797 21.9142549,22.1384407 20.1505261,22.1384407 C18.3867973,22.1384407 17.5049329,21.3527797 17.5049329,19.7814576 L17.5049329,12.3621356 L13.6567973,8.7180678 L13.6567973,20.1181695 C13.6567973,21.8818983 14.2660854,23.2848644 15.4846617,24.3270678 C16.7032379,25.3692712 18.2585261,25.8903729 20.1505261,25.8903729 Z M32.123764,25.9180678 L32.123764,20.3863729 L33.5872216,20.3863729 L37.715648,25.553661 L42.5812073,25.553661 L37.6795098,19.737 C38.6094759,19.2559831 39.3590606,18.5785508 39.928264,17.7047034 C40.4974674,16.8308559 40.7820691,15.8808475 40.7820691,14.854678 C40.7820691,13.2512881 40.2208827,11.8884068 39.0985098,10.7660339 C37.9761369,9.64366102 36.6132556,9.08247458 35.0098657,9.08247458 L28.2756284,9.08247458 L28.2756284,23.3672203 L32.123764,25.9180678 Z M32.123764,17.0192542 L32.123764,12.6901017 L35.0098657,12.6901017 C35.5389843,12.6901017 35.991942,12.8985424 36.3687386,13.3154237 C36.7455352,13.7323051 36.9339335,14.2453898 36.9339335,14.854678 C36.9339335,15.4639661 36.7455352,15.9770508 36.3687386,16.3939322 C35.991942,16.8108136 35.5389843,17.0192542 35.0098657,17.0192542 L32.123764,17.0192542 Z M52.5147984,25.553661 L52.5147984,21.8498305 L49.8693429,21.8498305 L45.7805611,21.8498305 L45.7805611,18.8675254 L51.793273,18.8675254 L51.793273,15.2117966 L45.7805611,15.2117966 L45.7805611,12.4218983 L52.3945442,12.4218983 L52.4745763,8.74576271 L41.9324255,8.7180678 L41.9324255,25.553661 L52.5147984,25.553661 Z M65.4940878,25.553661 C67.0333421,25.553661 68.3240709,25.0966949 69.3662743,24.1827627 C70.4084777,23.2688305 70.9295794,22.082322 70.9295794,20.6232373 C70.9295794,18.9717458 70.2401217,17.7050678 68.8612065,16.8232034 C69.8392743,15.9734068 70.3283082,14.8750847 70.3283082,13.5282373 C70.3283082,12.1012203 69.8192319,10.9427712 68.8010794,10.0528898 C67.7829268,9.16300847 66.5202573,8.7180678 65.0130709,8.7180678 L58.4231387,8.7180678 L58.4231387,25.553661 L65.4940878,25.553661 Z M62.2712743,15.308 L62.2712743,12.3256949 L65.0130709,12.3256949 C65.4459862,12.3256949 65.7987319,12.4659915 66.0713082,12.7465847 C66.3438845,13.027178 66.4801726,13.3839322 66.4801726,13.8168475 C66.4801726,14.2497627 66.3438845,14.6065169 66.0713082,14.8871102 C65.7987319,15.1677034 65.4459862,15.308 65.0130709,15.308 L62.2712743,15.308 Z M62.2712743,21.9460339 L62.2712743,18.7232203 L65.4940878,18.7232203 C65.9751048,18.7232203 66.3599184,18.8715339 66.6485285,19.168161 C66.9371387,19.4647881 67.0814438,19.8536102 67.0814438,20.3346271 C67.0814438,20.8156441 66.9371387,21.2044661 66.6485285,21.5010932 C66.3599184,21.7977203 65.9751048,21.9460339 65.4940878,21.9460339 L62.2712743,21.9460339 Z" id="SUREB-Copy" fill="#000000"></path>
                    <path d="M112.601695,0 C116.626821,-7.39403676e-16 119.889831,3.26300945 119.889831,7.28813559 L119.889831,35.7118644 C119.889831,39.6950623 116.694446,42.9319379 112.727229,42.9989407 L112.601695,43 L84.1779661,43 C80.15284,43 76.8898305,39.7369906 76.8898305,35.7118644 L76.8898305,7.28813559 C76.8898305,3.26300945 80.15284,7.39403676e-16 84.1779661,0 L112.601695,0 Z M95.6032807,6.55932203 L87.5323604,16.1779677 C87.4170482,16.2964213 87.3052526,16.4200005 87.1972789,16.5486786 C87.0892935,16.6773707 86.9869943,16.8089418 86.8903547,16.9430865 L86.8903547,16.9430865 L86.8813047,16.9537684 C84.8677349,19.7629543 85.3284617,23.6934621 88.0199534,25.9518918 C90.8437543,28.3213422 95.0537163,27.9530182 97.4231668,25.1292173 C97.4916571,25.0475936 97.5578599,24.9648118 97.6212292,24.8809535 C97.8791902,25.5463959 98.2491185,26.1814808 98.7334253,26.7586549 C99.295737,27.4287922 99.9617061,27.9606381 100.688205,28.3504194 L100.688205,28.3504194 L95.4363974,32.7566251 L98.123709,35.9592383 L107.742274,27.888222 C107.876404,27.7915918 108.00796,27.6893032 108.136638,27.5813294 C108.26533,27.473344 108.388923,27.3615358 108.507388,27.2462103 L108.507388,27.2462103 L108.518155,27.2372622 C110.988945,24.8204069 111.217743,20.869608 108.959313,18.1781162 C106.589863,15.3543153 102.379901,14.9859913 99.5560998,17.3554416 C99.168899,17.6803417 98.827866,18.0398471 98.5344647,18.4256586 C98.1415868,17.4096564 97.4939488,16.4757031 96.6004923,15.726004 C96.2592057,15.4396307 95.8976711,15.1932489 95.5215851,14.9863601 L95.5215851,14.9863601 L92.7171444,18.3286331 C93.1984966,18.3864677 93.6690784,18.5801717 94.0681786,18.9150567 C95.1620136,19.8328932 95.3046887,21.4636752 94.3868519,22.5575102 C93.4690155,23.6513451 91.8382335,23.7940201 90.7443984,22.8761836 C89.6728869,21.9770784 89.5141083,20.3938306 90.3708553,19.3013598 L90.3708553,19.3013598 L90.4141555,19.2475309 L94.3991707,14.4978081 L98.8058941,9.2466336 L95.6032807,6.55932203 Z M102.099714,20.4153293 C103.193549,19.4974927 104.824331,19.6401677 105.742167,20.7340027 C106.660004,21.8278376 106.517329,23.4586196 105.423494,24.3764561 C104.329659,25.2942927 102.698877,25.1516177 101.78104,24.0577827 C100.863204,22.9639478 101.005879,21.3331658 102.099714,20.4153293 Z" id="Combined-Shape" fill="#F5A623"></path>
                    <path d="M26.5806456,39.2766887 L26.5806456,38.0636135 L22.4175929,38.0636135 L22.4175929,29.6272287 L21.1355932,29.6272287 L21.1355932,39.2766887 L26.5806456,39.2766887 Z M30.2977538,39.455893 C31.3086496,39.455893 32.1679111,39.1066743 32.8755381,38.4082373 C33.5831652,37.7098 33.9369787,36.8505387 33.9369787,35.8304529 C33.9369787,34.8103671 33.5831652,33.9511057 32.8755381,33.2526686 C32.1679111,32.5542315 31.3086496,32.205013 30.2977538,32.205013 C29.286858,32.205013 28.4298941,32.5542315 27.726862,33.2526686 C27.02383,33.9511057 26.6723139,34.8103671 26.6723139,35.8304529 C26.6723139,36.8505387 27.02383,37.7098 27.726862,38.4082373 C28.4298941,39.1066743 29.286858,39.455893 30.2977538,39.455893 Z M30.2977538,38.2841729 C29.6176967,38.2841729 29.043324,38.0498287 28.574636,37.5811407 C28.105948,37.1124524 27.8716039,36.5288899 27.8716039,35.8304529 C27.8716039,35.1320158 28.105948,34.5484532 28.574636,34.0797652 C29.043324,33.6110771 29.6176967,33.3767331 30.2977538,33.3767331 C30.987001,33.3767331 31.5659686,33.6110771 32.0346566,34.0797652 C32.5033447,34.5484532 32.7376887,35.1320158 32.7376887,35.8304529 C32.7376887,36.5288899 32.5033447,37.1124524 32.0346566,37.5811407 C31.5659686,38.0498287 30.987001,38.2841729 30.2977538,38.2841729 Z M38.3433339,42.2128814 C39.3082802,42.2128814 40.1353768,41.9302901 40.8246238,41.3651072 C41.5138708,40.7999247 41.8584943,40.0072904 41.8584943,38.9872047 L41.8584943,38.9872047 L41.8584943,32.3842172 L40.6729894,32.3842172 L40.6729894,33.5697223 C40.0756418,32.6599161 39.2117856,32.205013 38.0814202,32.205013 C37.0980944,32.205013 36.2664027,32.551934 35.5863455,33.2457761 C34.9062884,33.9396183 34.5662598,34.7873922 34.5662598,35.7890981 C34.5662598,36.790804 34.9062884,37.6408754 35.5863455,38.3393124 C36.2664027,39.0377497 37.0980944,39.386968 38.0814202,39.386968 C39.2025957,39.386968 40.0664518,38.92747 40.6729894,38.008474 L40.6729894,38.008474 L40.6729894,38.9872047 C40.6729894,39.6396921 40.4685127,40.15433 40.0595594,40.5311182 C39.6506061,40.9079068 39.0877212,41.0963011 38.3709039,41.0963011 C37.2497288,41.0963011 36.5007468,40.7103225 36.1239583,39.9383657 L36.1239583,39.9383657 L35.0763027,40.5311182 C35.3611915,41.073326 35.7839297,41.489172 36.3445174,41.7786557 C36.9051049,42.0681393 37.5713772,42.2128814 38.3433339,42.2128814 Z M38.2192695,38.2428178 C37.5208325,38.2428178 36.93727,38.008474 36.4685821,37.5397857 C35.9998939,37.0710977 35.7655498,36.4875352 35.7655498,35.7890981 C35.7655498,35.0998509 35.9998939,34.5208833 36.4685821,34.0521953 C36.93727,33.5835073 37.5208325,33.3491632 38.2192695,33.3491632 C38.9177068,33.3491632 39.5012693,33.5835073 39.9699573,34.0521953 C40.4386452,34.5208833 40.6729894,35.0998509 40.6729894,35.7890981 C40.6729894,36.4875352 40.4386452,37.0710977 39.9699573,37.5397857 C39.5012693,38.008474 38.9177068,38.2428178 38.2192695,38.2428178 Z M43.8800548,31.1297874 C44.1006138,31.1297874 44.2890081,31.0516728 44.4452373,30.8954434 C44.6014669,30.7392141 44.6795815,30.5508199 44.6795815,30.3302608 C44.6795815,30.1097017 44.6014669,29.91901 44.4452373,29.7581856 C44.2890081,29.5973613 44.1006138,29.5169492 43.8800548,29.5169492 C43.6503058,29.5169492 43.4573167,29.5973613 43.3010871,29.7581856 C43.1448579,29.91901 43.0667433,30.1097017 43.0667433,30.3302608 C43.0667433,30.5508199 43.1448579,30.7392141 43.3010871,30.8954434 C43.4573167,31.0516728 43.6503058,31.1297874 43.8800548,31.1297874 Z M44.4728072,39.2766887 L44.4728072,32.3842172 L43.2735172,32.3842172 L43.2735172,39.2766887 L44.4728072,39.2766887 Z M48.2037004,39.455893 C48.9572776,39.455893 49.5753024,39.2674987 50.0577755,38.8907101 C50.5402482,38.5139219 50.7814848,38.0130688 50.7814848,37.3881513 C50.7814848,36.9194633 50.6482303,36.5357823 50.3817214,36.2371087 C50.1152126,35.9384349 49.7935638,35.7270658 49.4167756,35.6030013 C49.039987,35.4789369 48.6631988,35.3686573 48.2864102,35.2721627 C47.9096219,35.1756681 47.5879732,35.0470086 47.3214643,34.8861843 C47.0549554,34.72536 46.9217009,34.5116934 46.9217009,34.2451845 C46.9217009,33.9511057 47.0411702,33.7236542 47.2801092,33.5628298 C47.5190482,33.4020055 47.8085322,33.3215933 48.1485609,33.3215933 C48.8837578,33.3215933 49.3754205,33.6156721 49.6235495,34.2038297 L49.6235495,34.2038297 L50.6298504,33.638647 C50.4092914,33.1883389 50.0807502,32.8368229 49.644227,32.5840989 C49.2077037,32.3313749 48.7091483,32.205013 48.1485609,32.205013 C47.4501236,32.205013 46.8688587,32.3980022 46.4047655,32.7839806 C45.9406723,33.1699589 45.7086258,33.6616219 45.7086258,34.2589694 C45.7086258,34.7184675 45.8418802,35.095256 46.1083891,35.3893347 C46.374898,35.6834135 46.6965467,35.8947826 47.0733353,36.0234421 C47.4501236,36.1521016 47.8269122,36.2646786 48.2037004,36.3611732 C48.580489,36.4576677 48.9021377,36.5863273 49.1686466,36.7471517 C49.4351555,36.9079761 49.56841,37.1216424 49.56841,37.3881513 C49.56841,37.7098 49.4397503,37.9464418 49.1824314,38.0980758 C48.9251125,38.2497102 48.5988689,38.3255276 48.2037004,38.3255276 C47.7809623,38.3255276 47.4179588,38.229033 47.11469,38.0360436 C46.8114212,37.8430545 46.604647,37.5811407 46.4943677,37.250302 L46.4943677,37.250302 L45.4604968,37.8430545 C45.6626762,38.3301224 46.0027046,38.7206958 46.4805825,39.0147746 C46.9584608,39.3088534 47.5328333,39.455893 48.2037004,39.455893 Z M52.9684644,39.021667 C53.4555324,39.3295309 54.2228943,39.4145379 55.27055,39.2766887 L55.27055,39.2766887 L55.27055,38.2014631 C54.8661914,38.2198431 54.5261631,38.2267354 54.2504642,38.2221403 C53.9747654,38.2175455 53.7702887,38.1440257 53.6370343,38.0015812 C53.5037798,37.8591368 53.4371524,37.6179006 53.4371524,37.2778719 L53.4371524,37.2778719 L53.4371524,33.5421524 L55.27055,33.5421524 L55.27055,32.3842172 L53.4371524,32.3842172 L53.4371524,30.4543252 L52.2378624,30.8127337 L52.2378624,32.3842172 L50.8731531,32.3842172 L50.8731531,33.5421524 L52.2378624,33.5421524 L52.2378624,37.2778719 C52.2378624,38.1325385 52.4813965,38.7138034 52.9684644,39.021667 Z M56.8923467,31.1297874 C57.1129057,31.1297874 57.3013,31.0516728 57.4575296,30.8954434 C57.6137588,30.7392141 57.6918734,30.5508199 57.6918734,30.3302608 C57.6918734,30.1097017 57.6137588,29.91901 57.4575296,29.7581856 C57.3013,29.5973613 57.1129057,29.5169492 56.8923467,29.5169492 C56.6625977,29.5169492 56.4696086,29.5973613 56.3133794,29.7581856 C56.1571498,29.91901 56.0790352,30.1097017 56.0790352,30.3302608 C56.0790352,30.5508199 56.1571498,30.7392141 56.3133794,30.8954434 C56.4696086,31.0516728 56.6625977,31.1297874 56.8923467,31.1297874 Z M57.4850995,39.2766887 L57.4850995,32.3842172 L56.2858095,32.3842172 L56.2858095,39.2766887 L57.4850995,39.2766887 Z M62.1533687,39.455893 C62.8242357,39.455893 63.4353685,39.292771 63.9867662,38.9665275 C64.5381636,38.6402836 64.9609021,38.2060579 65.2549809,37.6638501 L65.2549809,37.6638501 L64.2348952,37.0710977 C64.0419057,37.4386963 63.761612,37.7304775 63.3940134,37.9464418 C63.0264151,38.1624056 62.6128667,38.2703877 62.1533687,38.2703877 C61.4641217,38.2703877 60.8874516,38.0360436 60.4233584,37.5673556 C59.9592652,37.0986676 59.7272186,36.5196999 59.7272186,35.8304529 C59.7272186,35.1320158 59.9592652,34.5484532 60.4233584,34.0797652 C60.8874516,33.6110771 61.4641217,33.3767331 62.1533687,33.3767331 C62.6128667,33.3767331 63.0241176,33.4870126 63.387121,33.7075717 C63.7501245,33.9281308 64.0189309,34.2222096 64.1935401,34.589808 L64.1935401,34.589808 L65.199841,34.0108405 C64.9333321,33.4594427 64.5289736,33.0206221 63.9867662,32.6943784 C63.4445584,32.3681348 62.8334257,32.205013 62.1533687,32.205013 C61.114903,32.205013 60.2510465,32.551934 59.5617995,33.2457761 C58.8725525,33.9396183 58.5279286,34.8011772 58.5279286,35.8304529 C58.5279286,36.8597286 58.8725525,37.7212876 59.5617995,38.4151297 C60.2510465,39.1089719 61.114903,39.455893 62.1533687,39.455893 Z M68.2966267,39.455893 C69.0502039,39.455893 69.6682287,39.2674987 70.1507018,38.8907101 C70.6331745,38.5139219 70.8744111,38.0130688 70.8744111,37.3881513 C70.8744111,36.9194633 70.7411567,36.5357823 70.4746478,36.2371087 C70.2081389,35.9384349 69.8864901,35.7270658 69.5097019,35.6030013 C69.1329133,35.4789369 68.7561251,35.3686573 68.3793365,35.2721627 C68.0025482,35.1756681 67.6808995,35.0470086 67.4143906,34.8861843 C67.1478817,34.72536 67.0146272,34.5116934 67.0146272,34.2451845 C67.0146272,33.9511057 67.1340966,33.7236542 67.3730355,33.5628298 C67.6119749,33.4020055 67.9014585,33.3215933 68.2414872,33.3215933 C68.9766841,33.3215933 69.4683468,33.6156721 69.7164758,34.2038297 L69.7164758,34.2038297 L70.7227767,33.638647 C70.5022177,33.1883389 70.1736765,32.8368229 69.7371533,32.5840989 C69.3006301,32.3313749 68.8020746,32.205013 68.2414872,32.205013 C67.5430499,32.205013 66.961785,32.3980022 66.4976918,32.7839806 C66.0335986,33.1699589 65.8015521,33.6616219 65.8015521,34.2589694 C65.8015521,34.7184675 65.9348065,35.095256 66.2013154,35.3893347 C66.4678243,35.6834135 66.7894731,35.8947826 67.1662616,36.0234421 C67.5430499,36.1521016 67.9198385,36.2646786 68.2966267,36.3611732 C68.6734153,36.4576677 68.995064,36.5863273 69.2615729,36.7471517 C69.5280818,36.9079761 69.6613363,37.1216424 69.6613363,37.3881513 C69.6613363,37.7098 69.5326766,37.9464418 69.2753577,38.0980758 C69.0180388,38.2497102 68.6917952,38.3255276 68.2966267,38.3255276 C67.8738886,38.3255276 67.5108851,38.229033 67.2076163,38.0360436 C66.9043476,37.8430545 66.6975737,37.5811407 66.587294,37.250302 L66.587294,37.250302 L65.5534231,37.8430545 C65.7556026,38.3301224 66.0956309,38.7206958 66.5735088,39.0147746 C67.0513871,39.3088534 67.6257596,39.455893 68.2966267,39.455893 Z" id="Logistics-Copy" fill="#000000"></path>
                    <path d="M6.73423729,25.8903729 C8.59416949,25.8903729 10.1013559,25.4293983 11.2557966,24.5074492 C12.4102373,23.5855 12.9874576,22.3228305 12.9874576,20.7194407 C12.9874576,20.0299831 12.8712119,19.4166864 12.6387203,18.8795508 C12.4062288,18.3424153 12.1416695,17.9095 11.8450424,17.5808051 C11.5484153,17.2521102 11.1155,16.9394492 10.5462966,16.642822 C9.97709322,16.3461949 9.50810169,16.1337458 9.13932203,16.0054746 C8.77054237,15.8772034 8.24944068,15.7088475 7.57601695,15.5004068 C6.34140678,15.1316271 5.52768644,14.7949153 5.13485593,14.4902712 C4.74202542,14.1856271 4.54561017,13.8248644 4.54561017,13.4079831 C4.54561017,13.0552373 4.70194068,12.7546017 5.01460169,12.5060763 C5.32726271,12.2575508 5.77220339,12.1332881 6.34942373,12.1332881 C7.08698305,12.1332881 7.68023729,12.2976356 8.12918644,12.6263305 C8.57813559,12.9550254 8.9549322,13.4400508 9.25957627,14.0814068 L12.5064407,12.1813898 C11.8971525,10.9467797 11.0633898,10.0047881 10.0051525,9.35541525 C8.94691525,8.70604237 7.72833898,8.38135593 6.34942373,8.38135593 C4.81016949,8.38135593 3.48336441,8.84633898 2.36900847,9.77630508 C1.25465254,10.7062712 0.697474576,11.9488983 0.697474576,13.5041864 C0.697474576,14.2738136 0.829754237,14.9552542 1.09431356,15.5485085 C1.35887288,16.1417627 1.74368644,16.6348051 2.24875424,17.0276356 C2.75382203,17.4204661 3.27091525,17.7371356 3.8000339,17.9776441 C4.32915254,18.2181525 4.94645763,18.4346102 5.65194915,18.6270169 C6.99879661,18.9957966 7.91673729,19.3204831 8.40577119,19.6010763 C8.89480508,19.8816695 9.13932203,20.2704915 9.13932203,20.7675424 C9.13932203,21.6814746 8.37771186,22.1384407 6.85449153,22.1384407 C5.1709322,22.1384407 3.99244068,21.3607966 3.31901695,19.8055085 L-4.97139053e-13,21.7295763 C0.481016949,23.0122881 1.29473729,24.0264322 2.44116102,24.7720085 C3.58758475,25.5175847 5.01861017,25.8903729 6.73423729,25.8903729 Z M20.1505261,25.8903729 C22.0425261,25.8903729 23.5978142,25.3692712 24.8163905,24.3270678 C26.0349668,23.2848644 26.6442549,21.8818983 26.6442549,20.1181695 L26.6442549,12.3621356 L22.7961193,8.7180678 L22.7961193,19.7814576 C22.7961193,21.3527797 21.9142549,22.1384407 20.1505261,22.1384407 C18.3867973,22.1384407 17.5049329,21.3527797 17.5049329,19.7814576 L17.5049329,12.3621356 L13.6567973,8.7180678 L13.6567973,20.1181695 C13.6567973,21.8818983 14.2660854,23.2848644 15.4846617,24.3270678 C16.7032379,25.3692712 18.2585261,25.8903729 20.1505261,25.8903729 Z M32.123764,25.9180678 L32.123764,20.3863729 L33.5872216,20.3863729 L37.715648,25.553661 L42.5812073,25.553661 L37.6795098,19.737 C38.6094759,19.2559831 39.3590606,18.5785508 39.928264,17.7047034 C40.4974674,16.8308559 40.7820691,15.8808475 40.7820691,14.854678 C40.7820691,13.2512881 40.2208827,11.8884068 39.0985098,10.7660339 C37.9761369,9.64366102 36.6132556,9.08247458 35.0098657,9.08247458 L28.2756284,9.08247458 L28.2756284,23.3672203 L32.123764,25.9180678 Z M32.123764,17.0192542 L32.123764,12.6901017 L35.0098657,12.6901017 C35.5389843,12.6901017 35.991942,12.8985424 36.3687386,13.3154237 C36.7455352,13.7323051 36.9339335,14.2453898 36.9339335,14.854678 C36.9339335,15.4639661 36.7455352,15.9770508 36.3687386,16.3939322 C35.991942,16.8108136 35.5389843,17.0192542 35.0098657,17.0192542 L32.123764,17.0192542 Z M52.5147984,25.553661 L52.5147984,21.8498305 L49.8693429,21.8498305 L45.7805611,21.8498305 L45.7805611,18.8675254 L51.793273,18.8675254 L51.793273,15.2117966 L45.7805611,15.2117966 L45.7805611,12.4218983 L52.3945442,12.4218983 L52.4745763,8.74576271 L41.9324255,8.7180678 L41.9324255,25.553661 L52.5147984,25.553661 Z M65.4940878,25.553661 C67.0333421,25.553661 68.3240709,25.0966949 69.3662743,24.1827627 C70.4084777,23.2688305 70.9295794,22.082322 70.9295794,20.6232373 C70.9295794,18.9717458 70.2401217,17.7050678 68.8612065,16.8232034 C69.8392743,15.9734068 70.3283082,14.8750847 70.3283082,13.5282373 C70.3283082,12.1012203 69.8192319,10.9427712 68.8010794,10.0528898 C67.7829268,9.16300847 66.5202573,8.7180678 65.0130709,8.7180678 L58.4231387,8.7180678 L58.4231387,25.553661 L65.4940878,25.553661 Z M62.2712743,15.308 L62.2712743,12.3256949 L65.0130709,12.3256949 C65.4459862,12.3256949 65.7987319,12.4659915 66.0713082,12.7465847 C66.3438845,13.027178 66.4801726,13.3839322 66.4801726,13.8168475 C66.4801726,14.2497627 66.3438845,14.6065169 66.0713082,14.8871102 C65.7987319,15.1677034 65.4459862,15.308 65.0130709,15.308 L62.2712743,15.308 Z M62.2712743,21.9460339 L62.2712743,18.7232203 L65.4940878,18.7232203 C65.9751048,18.7232203 66.3599184,18.8715339 66.6485285,19.168161 C66.9371387,19.4647881 67.0814438,19.8536102 67.0814438,20.3346271 C67.0814438,20.8156441 66.9371387,21.2044661 66.6485285,21.5010932 C66.3599184,21.7977203 65.9751048,21.9460339 65.4940878,21.9460339 L62.2712743,21.9460339 Z" id="SUREB-Copy-2" fill="#000000"></path>
                    <path d="M26.5806456,39.2766887 L26.5806456,38.0636135 L22.4175929,38.0636135 L22.4175929,29.6272287 L21.1355932,29.6272287 L21.1355932,39.2766887 L26.5806456,39.2766887 Z M30.2977538,39.455893 C31.3086496,39.455893 32.1679111,39.1066743 32.8755381,38.4082373 C33.5831652,37.7098 33.9369787,36.8505387 33.9369787,35.8304529 C33.9369787,34.8103671 33.5831652,33.9511057 32.8755381,33.2526686 C32.1679111,32.5542315 31.3086496,32.205013 30.2977538,32.205013 C29.286858,32.205013 28.4298941,32.5542315 27.726862,33.2526686 C27.02383,33.9511057 26.6723139,34.8103671 26.6723139,35.8304529 C26.6723139,36.8505387 27.02383,37.7098 27.726862,38.4082373 C28.4298941,39.1066743 29.286858,39.455893 30.2977538,39.455893 Z M30.2977538,38.2841729 C29.6176967,38.2841729 29.043324,38.0498287 28.574636,37.5811407 C28.105948,37.1124524 27.8716039,36.5288899 27.8716039,35.8304529 C27.8716039,35.1320158 28.105948,34.5484532 28.574636,34.0797652 C29.043324,33.6110771 29.6176967,33.3767331 30.2977538,33.3767331 C30.987001,33.3767331 31.5659686,33.6110771 32.0346566,34.0797652 C32.5033447,34.5484532 32.7376887,35.1320158 32.7376887,35.8304529 C32.7376887,36.5288899 32.5033447,37.1124524 32.0346566,37.5811407 C31.5659686,38.0498287 30.987001,38.2841729 30.2977538,38.2841729 Z M38.3433339,42.2128814 C39.3082802,42.2128814 40.1353768,41.9302901 40.8246238,41.3651072 C41.5138708,40.7999247 41.8584943,40.0072904 41.8584943,38.9872047 L41.8584943,38.9872047 L41.8584943,32.3842172 L40.6729894,32.3842172 L40.6729894,33.5697223 C40.0756418,32.6599161 39.2117856,32.205013 38.0814202,32.205013 C37.0980944,32.205013 36.2664027,32.551934 35.5863455,33.2457761 C34.9062884,33.9396183 34.5662598,34.7873922 34.5662598,35.7890981 C34.5662598,36.790804 34.9062884,37.6408754 35.5863455,38.3393124 C36.2664027,39.0377497 37.0980944,39.386968 38.0814202,39.386968 C39.2025957,39.386968 40.0664518,38.92747 40.6729894,38.008474 L40.6729894,38.008474 L40.6729894,38.9872047 C40.6729894,39.6396921 40.4685127,40.15433 40.0595594,40.5311182 C39.6506061,40.9079068 39.0877212,41.0963011 38.3709039,41.0963011 C37.2497288,41.0963011 36.5007468,40.7103225 36.1239583,39.9383657 L36.1239583,39.9383657 L35.0763027,40.5311182 C35.3611915,41.073326 35.7839297,41.489172 36.3445174,41.7786557 C36.9051049,42.0681393 37.5713772,42.2128814 38.3433339,42.2128814 Z M38.2192695,38.2428178 C37.5208325,38.2428178 36.93727,38.008474 36.4685821,37.5397857 C35.9998939,37.0710977 35.7655498,36.4875352 35.7655498,35.7890981 C35.7655498,35.0998509 35.9998939,34.5208833 36.4685821,34.0521953 C36.93727,33.5835073 37.5208325,33.3491632 38.2192695,33.3491632 C38.9177068,33.3491632 39.5012693,33.5835073 39.9699573,34.0521953 C40.4386452,34.5208833 40.6729894,35.0998509 40.6729894,35.7890981 C40.6729894,36.4875352 40.4386452,37.0710977 39.9699573,37.5397857 C39.5012693,38.008474 38.9177068,38.2428178 38.2192695,38.2428178 Z M43.8800548,31.1297874 C44.1006138,31.1297874 44.2890081,31.0516728 44.4452373,30.8954434 C44.6014669,30.7392141 44.6795815,30.5508199 44.6795815,30.3302608 C44.6795815,30.1097017 44.6014669,29.91901 44.4452373,29.7581856 C44.2890081,29.5973613 44.1006138,29.5169492 43.8800548,29.5169492 C43.6503058,29.5169492 43.4573167,29.5973613 43.3010871,29.7581856 C43.1448579,29.91901 43.0667433,30.1097017 43.0667433,30.3302608 C43.0667433,30.5508199 43.1448579,30.7392141 43.3010871,30.8954434 C43.4573167,31.0516728 43.6503058,31.1297874 43.8800548,31.1297874 Z M44.4728072,39.2766887 L44.4728072,32.3842172 L43.2735172,32.3842172 L43.2735172,39.2766887 L44.4728072,39.2766887 Z M48.2037004,39.455893 C48.9572776,39.455893 49.5753024,39.2674987 50.0577755,38.8907101 C50.5402482,38.5139219 50.7814848,38.0130688 50.7814848,37.3881513 C50.7814848,36.9194633 50.6482303,36.5357823 50.3817214,36.2371087 C50.1152126,35.9384349 49.7935638,35.7270658 49.4167756,35.6030013 C49.039987,35.4789369 48.6631988,35.3686573 48.2864102,35.2721627 C47.9096219,35.1756681 47.5879732,35.0470086 47.3214643,34.8861843 C47.0549554,34.72536 46.9217009,34.5116934 46.9217009,34.2451845 C46.9217009,33.9511057 47.0411702,33.7236542 47.2801092,33.5628298 C47.5190482,33.4020055 47.8085322,33.3215933 48.1485609,33.3215933 C48.8837578,33.3215933 49.3754205,33.6156721 49.6235495,34.2038297 L49.6235495,34.2038297 L50.6298504,33.638647 C50.4092914,33.1883389 50.0807502,32.8368229 49.644227,32.5840989 C49.2077037,32.3313749 48.7091483,32.205013 48.1485609,32.205013 C47.4501236,32.205013 46.8688587,32.3980022 46.4047655,32.7839806 C45.9406723,33.1699589 45.7086258,33.6616219 45.7086258,34.2589694 C45.7086258,34.7184675 45.8418802,35.095256 46.1083891,35.3893347 C46.374898,35.6834135 46.6965467,35.8947826 47.0733353,36.0234421 C47.4501236,36.1521016 47.8269122,36.2646786 48.2037004,36.3611732 C48.580489,36.4576677 48.9021377,36.5863273 49.1686466,36.7471517 C49.4351555,36.9079761 49.56841,37.1216424 49.56841,37.3881513 C49.56841,37.7098 49.4397503,37.9464418 49.1824314,38.0980758 C48.9251125,38.2497102 48.5988689,38.3255276 48.2037004,38.3255276 C47.7809623,38.3255276 47.4179588,38.229033 47.11469,38.0360436 C46.8114212,37.8430545 46.604647,37.5811407 46.4943677,37.250302 L46.4943677,37.250302 L45.4604968,37.8430545 C45.6626762,38.3301224 46.0027046,38.7206958 46.4805825,39.0147746 C46.9584608,39.3088534 47.5328333,39.455893 48.2037004,39.455893 Z M52.9684644,39.021667 C53.4555324,39.3295309 54.2228943,39.4145379 55.27055,39.2766887 L55.27055,39.2766887 L55.27055,38.2014631 C54.8661914,38.2198431 54.5261631,38.2267354 54.2504642,38.2221403 C53.9747654,38.2175455 53.7702887,38.1440257 53.6370343,38.0015812 C53.5037798,37.8591368 53.4371524,37.6179006 53.4371524,37.2778719 L53.4371524,37.2778719 L53.4371524,33.5421524 L55.27055,33.5421524 L55.27055,32.3842172 L53.4371524,32.3842172 L53.4371524,30.4543252 L52.2378624,30.8127337 L52.2378624,32.3842172 L50.8731531,32.3842172 L50.8731531,33.5421524 L52.2378624,33.5421524 L52.2378624,37.2778719 C52.2378624,38.1325385 52.4813965,38.7138034 52.9684644,39.021667 Z M56.8923467,31.1297874 C57.1129057,31.1297874 57.3013,31.0516728 57.4575296,30.8954434 C57.6137588,30.7392141 57.6918734,30.5508199 57.6918734,30.3302608 C57.6918734,30.1097017 57.6137588,29.91901 57.4575296,29.7581856 C57.3013,29.5973613 57.1129057,29.5169492 56.8923467,29.5169492 C56.6625977,29.5169492 56.4696086,29.5973613 56.3133794,29.7581856 C56.1571498,29.91901 56.0790352,30.1097017 56.0790352,30.3302608 C56.0790352,30.5508199 56.1571498,30.7392141 56.3133794,30.8954434 C56.4696086,31.0516728 56.6625977,31.1297874 56.8923467,31.1297874 Z M57.4850995,39.2766887 L57.4850995,32.3842172 L56.2858095,32.3842172 L56.2858095,39.2766887 L57.4850995,39.2766887 Z M62.1533687,39.455893 C62.8242357,39.455893 63.4353685,39.292771 63.9867662,38.9665275 C64.5381636,38.6402836 64.9609021,38.2060579 65.2549809,37.6638501 L65.2549809,37.6638501 L64.2348952,37.0710977 C64.0419057,37.4386963 63.761612,37.7304775 63.3940134,37.9464418 C63.0264151,38.1624056 62.6128667,38.2703877 62.1533687,38.2703877 C61.4641217,38.2703877 60.8874516,38.0360436 60.4233584,37.5673556 C59.9592652,37.0986676 59.7272186,36.5196999 59.7272186,35.8304529 C59.7272186,35.1320158 59.9592652,34.5484532 60.4233584,34.0797652 C60.8874516,33.6110771 61.4641217,33.3767331 62.1533687,33.3767331 C62.6128667,33.3767331 63.0241176,33.4870126 63.387121,33.7075717 C63.7501245,33.9281308 64.0189309,34.2222096 64.1935401,34.589808 L64.1935401,34.589808 L65.199841,34.0108405 C64.9333321,33.4594427 64.5289736,33.0206221 63.9867662,32.6943784 C63.4445584,32.3681348 62.8334257,32.205013 62.1533687,32.205013 C61.114903,32.205013 60.2510465,32.551934 59.5617995,33.2457761 C58.8725525,33.9396183 58.5279286,34.8011772 58.5279286,35.8304529 C58.5279286,36.8597286 58.8725525,37.7212876 59.5617995,38.4151297 C60.2510465,39.1089719 61.114903,39.455893 62.1533687,39.455893 Z M68.2966267,39.455893 C69.0502039,39.455893 69.6682287,39.2674987 70.1507018,38.8907101 C70.6331745,38.5139219 70.8744111,38.0130688 70.8744111,37.3881513 C70.8744111,36.9194633 70.7411567,36.5357823 70.4746478,36.2371087 C70.2081389,35.9384349 69.8864901,35.7270658 69.5097019,35.6030013 C69.1329133,35.4789369 68.7561251,35.3686573 68.3793365,35.2721627 C68.0025482,35.1756681 67.6808995,35.0470086 67.4143906,34.8861843 C67.1478817,34.72536 67.0146272,34.5116934 67.0146272,34.2451845 C67.0146272,33.9511057 67.1340966,33.7236542 67.3730355,33.5628298 C67.6119749,33.4020055 67.9014585,33.3215933 68.2414872,33.3215933 C68.9766841,33.3215933 69.4683468,33.6156721 69.7164758,34.2038297 L69.7164758,34.2038297 L70.7227767,33.638647 C70.5022177,33.1883389 70.1736765,32.8368229 69.7371533,32.5840989 C69.3006301,32.3313749 68.8020746,32.205013 68.2414872,32.205013 C67.5430499,32.205013 66.961785,32.3980022 66.4976918,32.7839806 C66.0335986,33.1699589 65.8015521,33.6616219 65.8015521,34.2589694 C65.8015521,34.7184675 65.9348065,35.095256 66.2013154,35.3893347 C66.4678243,35.6834135 66.7894731,35.8947826 67.1662616,36.0234421 C67.5430499,36.1521016 67.9198385,36.2646786 68.2966267,36.3611732 C68.6734153,36.4576677 68.995064,36.5863273 69.2615729,36.7471517 C69.5280818,36.9079761 69.6613363,37.1216424 69.6613363,37.3881513 C69.6613363,37.7098 69.5326766,37.9464418 69.2753577,38.0980758 C69.0180388,38.2497102 68.6917952,38.3255276 68.2966267,38.3255276 C67.8738886,38.3255276 67.5108851,38.229033 67.2076163,38.0360436 C66.9043476,37.8430545 66.6975737,37.5811407 66.587294,37.250302 L66.587294,37.250302 L65.5534231,37.8430545 C65.7556026,38.3301224 66.0956309,38.7206958 66.5735088,39.0147746 C67.0513871,39.3088534 67.6257596,39.455893 68.2966267,39.455893 Z" id="Logistics-Copy-2" fill="#000000"></path>
                </g>
            </g>
        </g>
    </g>
</svg>