<?xml version="1.0" encoding="UTF-8"?>
<svg width="52px" height="31px" viewBox="0 0 52 31" version="1.1" xmlns="http://www.w3.org/2000/svg" xmlns:xlink="http://www.w3.org/1999/xlink">
    <title>Combined Shape</title>
    <g id="Landing" stroke="none" stroke-width="1" fill="none" fill-rule="evenodd">
        <g id="Desktop-HD-Copy-2" transform="translate(-764.000000, -335.000000)" fill="#FFFFFF" fill-rule="nonzero">
            <path d="M773.086207,359.586207 C774.85481,359.586207 776.293103,361.0245 776.293103,362.793103 C776.293103,364.561707 774.85481,366 773.086207,366 C771.317603,366 769.87931,364.561707 769.87931,362.793103 C769.87931,361.0245 771.317603,359.586207 773.086207,359.586207 Z M780.568966,359.586207 C782.337569,359.586207 783.775862,361.0245 783.775862,362.793103 C783.775862,364.561707 782.337569,366 780.568966,366 C778.800362,366 777.362069,364.561707 777.362069,362.793103 C777.362069,361.0245 778.800362,359.586207 780.568966,359.586207 Z M804.62069,359.586207 C806.389293,359.586207 807.827586,361.0245 807.827586,362.793103 C807.827586,364.561707 806.389293,366 804.62069,366 C802.852086,366 801.413793,364.561707 801.413793,362.793103 C801.413793,361.0245 802.852086,359.586207 804.62069,359.586207 Z M807.843086,341.413793 C809.699345,341.413793 811.444431,342.136414 812.756052,343.448569 L812.756052,343.448569 L813.275034,343.967552 C814.587724,345.279707 815.310345,347.024793 815.310345,348.881052 L815.310345,348.881052 L815.310345,362.793103 C815.310345,363.088672 815.070897,363.327586 814.775862,363.327586 L814.775862,363.327586 L809.431034,363.327586 C809.136,363.327586 808.896552,363.088672 808.896552,362.793103 C808.896552,360.4355 806.978293,358.517241 804.62069,358.517241 C802.263086,358.517241 800.344828,360.4355 800.344828,362.793103 C800.344828,363.088672 800.105379,363.327586 799.810345,363.327586 L799.810345,363.327586 L785.37931,363.327586 C785.084276,363.327586 784.844828,363.088672 784.844828,362.793103 C784.844828,360.4355 782.926569,358.517241 780.568966,358.517241 C779.27231,358.517241 778.060638,359.099293 777.244483,360.113741 C777.041379,360.365483 776.614328,360.365483 776.411224,360.113741 C775.594534,359.099293 774.382862,358.517241 773.086207,358.517241 C770.728603,358.517241 768.810345,360.4355 768.810345,362.793103 C768.810345,363.088672 768.570897,363.327586 768.275862,363.327586 L768.275862,363.327586 L766.672414,363.327586 C766.530776,363.327586 766.394483,363.271466 766.294534,363.170983 L766.294534,363.170983 L764.156603,361.033052 C764.056121,360.933103 764,360.797345 764,360.655172 L764,360.655172 L764,353.706897 C764,353.411328 764.239448,353.172414 764.534483,353.172414 L764.534483,353.172414 L804.086207,353.172414 L804.086207,341.948276 C804.086207,341.653241 804.325655,341.413793 804.62069,341.413793 L804.62069,341.413793 Z M809.431034,353.706897 L808.362069,353.706897 C808.067034,353.706897 807.827586,353.94581 807.827586,354.241379 C807.827586,354.536948 808.067034,354.775862 808.362069,354.775862 L808.362069,354.775862 L809.431034,354.775862 C809.726069,354.775862 809.965517,354.536948 809.965517,354.241379 C809.965517,353.94581 809.726069,353.706897 809.431034,353.706897 L809.431034,353.706897 Z M807.843621,343.551724 L806.758621,343.551724 C806.463586,343.551724 806.224138,343.791172 806.224138,344.086207 L806.224138,344.086207 L806.224138,351.034483 C806.224138,351.330052 806.463586,351.568966 806.758621,351.568966 L806.758621,351.568966 L809.209759,351.568966 L810.122121,352.481328 C810.222069,352.58181 810.358362,352.637931 810.5,352.637931 L810.5,352.637931 L812.637931,352.637931 C812.932966,352.637931 813.172414,352.399017 813.172414,352.103448 L813.172414,352.103448 L813.172414,348.880517 C813.172414,347.593483 812.672672,346.385017 811.765121,345.477466 L811.765121,345.477466 L811.246672,344.959017 C810.339121,344.051466 809.130655,343.551724 807.843621,343.551724 L807.843621,343.551724 Z M779.5,335 C780.384034,335 781.103448,335.719414 781.103448,336.603448 L781.103448,337.137931 L785.37931,337.137931 L785.37931,336.603448 C785.37931,335.719414 786.098724,335 786.982759,335 L795.534483,335 C796.418517,335 797.137931,335.719414 797.137931,336.603448 L797.137931,337.137931 L798.206897,337.137931 C800.859,337.137931 803.017241,339.296172 803.017241,341.948276 L803.017241,347.293103 C803.017241,349.945207 800.859,352.103448 798.206897,352.103448 L768.810345,352.103448 C766.158241,352.103448 764,349.945207 764,347.293103 L764,341.948276 C764,339.296172 766.158241,337.137931 768.810345,337.137931 L769.344828,337.137931 L769.344828,336.603448 C769.344828,335.719414 770.064241,335 770.948276,335 L779.5,335 Z" id="Combined-Shape"></path>
        </g>
    </g>
</svg>