<?xml version="1.0" encoding="UTF-8"?>
<svg width="56px" height="35px" viewBox="0 0 56 35" version="1.1" xmlns="http://www.w3.org/2000/svg" xmlns:xlink="http://www.w3.org/1999/xlink">
    <title>Combined Shape</title>
    <g id="Landing" stroke="none" stroke-width="1" fill="none" fill-rule="evenodd">
        <g id="Desktop-HD-Copy-2" transform="translate(-648.000000, -334.000000)" fill="#FFFFFF" fill-rule="nonzero">
            <path d="M661.8,358.942857 C664.521975,358.942857 666.728571,361.149454 666.728571,363.871429 C666.728571,366.593403 664.521975,368.8 661.8,368.8 C659.078025,368.8 656.871429,366.593403 656.871429,363.871429 C656.871429,361.149454 659.078025,358.942857 661.8,358.942857 Z M693.342857,358.942857 C696.064832,358.942857 698.271429,361.149454 698.271429,363.871429 C698.271429,366.593403 696.064832,368.8 693.342857,368.8 C690.620882,368.8 688.414286,366.593403 688.414286,363.871429 C688.414286,361.149454 690.620882,358.942857 693.342857,358.942857 Z M679.542857,334.3 C680.725714,334.3 681.514286,335.088571 681.514286,336.271429 L681.514286,336.271429 L681.514286,363.871429 L668.7,363.871429 C668.7,360.125714 665.545714,356.971429 661.8,356.971429 C658.054286,356.971429 654.9,360.125714 654.9,363.871429 L654.9,363.871429 L649.971429,363.871429 C648.788571,363.871429 648,363.082857 648,361.9 L648,361.9 L648,336.271429 C648,335.088571 648.788571,334.3 649.971429,334.3 L649.971429,334.3 Z M694.525714,340.214286 C695.117143,340.214286 695.511429,340.411429 695.905714,340.805714 L695.905714,340.805714 L702.608571,347.508571 C703.002857,347.705714 703.2,348.297143 703.2,348.888571 L703.2,348.888571 L703.2,361.9 C703.2,363.082857 702.411429,363.871429 701.228571,363.871429 L701.228571,363.871429 L700.242857,363.871429 C700.242857,360.125714 697.088571,356.971429 693.342857,356.971429 C689.597143,356.971429 686.442857,360.125714 686.442857,363.871429 L686.442857,363.871429 L683.485714,363.871429 L683.485714,340.214286 Z M693.54,343.171429 L687.428571,343.171429 C686.837143,343.171429 686.442857,343.565714 686.442857,344.157143 L686.442857,344.157143 L686.442857,350.071429 C686.442857,350.662857 686.837143,351.057143 687.428571,351.057143 L687.428571,351.057143 L699.257143,351.057143 C699.848571,351.057143 700.242857,350.662857 700.242857,350.071429 L700.242857,350.071429 L700.242857,349.874286 C700.242857,349.677143 700.045714,349.282857 699.848571,349.085714 L699.848571,349.085714 L694.328571,343.565714 C694.131429,343.368571 693.737143,343.171429 693.54,343.171429 L693.54,343.171429 Z" id="Combined-Shape"></path>
        </g>
    </g>
</svg>